<svg width="36" height="36" viewBox="0 0 36 36" fill="none" xmlns="http://www.w3.org/2000/svg">
<path d="M35.123 18.1207C35.1315 22.3912 33.5339 26.5088 30.6473 29.6561C27.7607 32.8034 23.7962 34.7501 19.5408 35.1098C19.0616 35.1754 18.5778 35.2018 18.0944 35.1887C14.7134 35.1887 11.4084 34.1861 8.59725 32.3078C5.78609 30.4294 3.59507 27.7597 2.30124 24.6361C1.00741 21.5125 0.668882 18.0754 1.32847 14.7594C1.98806 11.4434 3.61614 8.39751 6.00683 6.00683C8.39751 3.61614 11.4434 1.98806 14.7594 1.32847C18.0754 0.668882 21.5125 1.00741 24.6361 2.30124C27.7597 3.59507 30.4294 5.78609 32.3078 8.59725C34.1861 11.4084 35.1887 14.7134 35.1887 18.0944L35.123 18.1207Z" stroke="#B1B1B1" stroke-miterlimit="10"/>
<path d="M20.08 14.5571C20.2862 14.3679 20.5293 14.2234 20.7941 14.1329C21.0589 14.0424 21.3396 14.0077 21.6185 14.0311C22.4049 14.0321 23.1877 14.1383 23.9459 14.3467L24.6166 10.77C23.2558 10.3217 21.8277 10.1126 20.3956 10.152C19.1531 10.0955 17.9182 10.3724 16.8189 10.9541C15.9773 11.3583 15.3064 12.0479 14.9254 12.9003C14.5119 14.0542 14.3331 15.2792 14.3994 16.5032V17.9102H11.5723V21.9997H14.3994V34.8599C15.6135 35.1215 16.8525 35.2494 18.0944 35.2413C18.5779 35.2544 19.0617 35.228 19.5409 35.1624V22.0129H23.2885V17.8576H19.5409V16.5427C19.4581 15.8361 19.6512 15.1248 20.08 14.5571Z" fill="#B1B1B1"/>
</svg>
