<svg width="19" height="17" viewBox="0 0 19 17" fill="none" xmlns="http://www.w3.org/2000/svg">
<path d="M5.1175 0.031373C5.60127 0.0271755 6.08198 0.108423 6.5375 0.271373C6.84714 0.386122 7.14516 0.530105 7.4275 0.701373C7.78859 0.919818 8.12402 1.1781 8.4275 1.47137C8.59559 1.64814 8.75256 1.83517 8.8975 2.03137C8.97631 2.12027 9.04977 2.21377 9.1175 2.31137C9.1175 2.31137 9.1675 2.31137 9.2075 2.31137C9.47713 1.97666 9.77127 1.66246 10.0875 1.37137C10.2559 1.211 10.4364 1.0639 10.6275 0.931373C10.836 0.788258 11.0531 0.658016 11.2775 0.541373C11.4906 0.425256 11.7151 0.331426 11.9475 0.261373C12.2236 0.149616 12.5125 0.0723651 12.8075 0.031373C13.1395 -0.0104577 13.4755 -0.0104577 13.8075 0.031373C14.5367 0.166645 15.2328 0.441698 15.8575 0.841373C16.145 1.01197 16.4132 1.21314 16.6575 1.44137C16.7877 1.56159 16.9081 1.692 17.0175 1.83137C17.1691 2.03127 17.3061 2.24181 17.4275 2.46137C17.6918 2.92028 17.8967 3.41086 18.0375 3.92137C18.1177 4.22713 18.1778 4.53779 18.2175 4.85137C18.2401 5.18432 18.2401 5.51842 18.2175 5.85137C18.1996 6.13299 18.1662 6.41341 18.1175 6.69137C18.0291 7.16349 17.8847 7.62339 17.6875 8.06137C17.5343 8.40664 17.3572 8.74079 17.1575 9.06137C16.9475 9.40137 16.6975 9.71137 16.4575 10.0614C16.3175 10.2314 16.1675 10.3814 16.0075 10.5414C15.7246 10.8391 15.424 11.1196 15.1075 11.3814L14.7775 11.6514L14.2875 12.0414C13.9575 12.2914 13.6175 12.5314 13.2875 12.7914L12.8375 13.1414C12.6375 13.2814 12.4475 13.4314 12.2575 13.5814L11.6175 14.0914C11.3175 14.3314 11.0375 14.5714 10.7575 14.8214C10.4775 15.0714 10.4775 15.0814 10.3375 15.2214C10.1975 15.3614 10.1075 15.4614 9.9775 15.5714C9.91197 15.6436 9.85181 15.7204 9.7975 15.8014C9.5975 16.0514 9.4175 16.3114 9.2375 16.5814C9.20661 16.6265 9.17322 16.6699 9.1375 16.7114C9.1375 16.7114 9.0675 16.7714 9.0275 16.7114L8.7975 16.3814C8.56503 16.0279 8.30058 15.6965 8.0075 15.3914L7.2575 14.7014C6.9375 14.4214 6.5975 14.1614 6.2575 13.8914C5.9175 13.6214 5.9075 13.6214 5.7275 13.4914L5.0075 12.9014L4.0075 12.1214L3.4075 11.6514C3.0875 11.3914 2.7875 11.1214 2.4975 10.8414C2.24871 10.5992 2.01494 10.342 1.7975 10.0714C1.49962 9.72364 1.23512 9.34866 1.0075 8.95137C0.842404 8.67958 0.698639 8.3954 0.577497 8.10137C0.369558 7.6475 0.215185 7.17096 0.117497 6.68137C0.0660403 6.44724 0.0293017 6.2101 0.00749722 5.97137C-0.00249907 5.82154 -0.00249907 5.67121 0.00749722 5.52137C0.0121437 5.46814 0.0121437 5.41461 0.00749722 5.36137C0.00749722 5.27137 0.00749722 5.18137 0.00749722 5.08137C0.0278885 4.80883 0.0679934 4.53812 0.127497 4.27137C0.180237 4.03428 0.247022 3.80054 0.327497 3.57137C0.423446 3.28642 0.540435 3.00899 0.677497 2.74137C0.822658 2.46281 0.993392 2.19834 1.1875 1.95137C1.49566 1.54783 1.87947 1.20817 2.3175 0.951373C2.56098 0.794249 2.81491 0.653923 3.0775 0.531373C3.37691 0.390945 3.68811 0.277172 4.0075 0.191373C4.36798 0.0853852 4.74176 0.0315062 5.1175 0.031373Z" fill="#E92027"/>
</svg>
