<svg width="26" height="27" viewBox="0 0 26 27" fill="none" xmlns="http://www.w3.org/2000/svg">
<path d="M20.2547 0H21.5709H21.7172C22.532 0.131251 23.3028 0.458391 23.9633 0.953308C24.6238 1.44822 25.1542 2.09612 25.509 2.8413C25.741 3.33152 25.9027 3.85197 25.9896 4.3873V5.73483C25.9896 5.79751 25.9896 5.84974 25.9896 5.91241C25.8506 6.83961 25.4508 7.70814 24.8367 8.41657C24.2226 9.125 23.4196 9.64409 22.5215 9.91322C21.6373 10.2266 20.6816 10.279 19.7685 10.0642C18.8553 9.84931 18.0233 9.37627 17.3716 8.70149C17.2254 8.55524 17.1209 8.59703 16.9747 8.70149C15.3521 9.69037 13.726 10.6758 12.0964 11.6577C12.0535 11.6731 12.0144 11.6977 11.9819 11.7298C11.9494 11.7619 11.9243 11.8006 11.9084 11.8434C11.8925 11.8862 11.8861 11.9319 11.8897 11.9775C11.8933 12.023 11.9068 12.0671 11.9293 12.1069C12.2902 13.1412 12.3517 14.2564 12.1069 15.3242C12.0889 15.3679 12.0804 15.4149 12.0819 15.4621C12.0834 15.5093 12.0949 15.5557 12.1156 15.5981C12.1364 15.6405 12.1658 15.6781 12.2021 15.7083C12.2384 15.7385 12.2807 15.7607 12.3262 15.7734C13.7573 16.4211 15.1989 17.0896 16.6195 17.7686C16.818 17.8626 16.912 17.8208 17.0478 17.6641C17.5328 17.0824 18.1413 16.616 18.829 16.2989C19.5168 15.9818 20.2666 15.8219 21.024 15.8309C21.7813 15.8399 22.5271 16.0176 23.2071 16.351C23.8872 16.6843 24.4844 17.165 24.9554 17.7581C25.5119 18.4949 25.8714 19.3613 26 20.2756V21.5918C26 21.6649 26 21.738 25.9478 21.8112C25.722 23.1451 24.9755 24.3348 23.8726 25.1184C22.7697 25.902 21.4007 26.2153 20.0667 25.9896C18.7327 25.7638 17.5431 25.0173 16.7595 23.9144C15.9759 22.8115 15.6625 21.4424 15.8883 20.1085C15.9076 20.0579 15.9157 20.0037 15.9121 19.9497C15.9086 19.8957 15.8934 19.8431 15.8676 19.7955C15.8418 19.7478 15.806 19.7064 15.7627 19.6739C15.7194 19.6413 15.6696 19.6186 15.6167 19.6071C14.217 18.9699 12.8276 18.3222 11.4383 17.6641C11.3969 17.6344 11.3496 17.614 11.2996 17.6042C11.2496 17.5944 11.1981 17.5955 11.1485 17.6074C11.099 17.6193 11.0526 17.6417 11.0125 17.6731C10.9723 17.7046 10.9395 17.7442 10.916 17.7895C10.3002 18.5808 9.49921 19.2084 8.58357 19.6169C7.66793 20.0255 6.66583 20.2025 5.66563 20.1323C4.66543 20.0621 3.69786 19.7469 2.84826 19.2145C1.99866 18.682 1.29313 17.9487 0.793893 17.0791C0.397438 16.3615 0.128806 15.5803 0 14.7706L0 13.2455C0 13.1201 0.0522298 12.9948 0.0835677 12.8799C0.269316 11.7649 0.771859 10.727 1.53125 9.88981C2.29064 9.05262 3.27483 8.45155 4.36641 8.1583C5.44177 7.80944 6.59518 7.77967 7.68711 8.07258C8.77904 8.36549 9.76269 8.96854 10.5191 9.80876C10.5483 9.83877 10.5832 9.86262 10.6218 9.8789C10.6604 9.89519 10.7018 9.90358 10.7437 9.90358C10.7855 9.90358 10.827 9.89519 10.8656 9.8789C10.9041 9.86262 10.9391 9.83877 10.9683 9.80876C12.5909 8.84077 14.2135 7.87626 15.8361 6.91523C15.877 6.8972 15.9138 6.87116 15.9445 6.83865C15.9751 6.80614 15.9989 6.76781 16.0145 6.72594C16.0301 6.68406 16.0371 6.63949 16.0352 6.59485C16.0332 6.55021 16.0224 6.50642 16.0032 6.46605C15.7142 5.45563 15.7459 4.38041 16.0939 3.38876C16.4419 2.39711 17.0891 1.5379 17.9462 0.929691C18.6335 0.445645 19.4237 0.127429 20.2547 0V0ZM10.1326 13.9976C10.1216 12.9308 9.69154 11.911 8.93518 11.1586C8.17882 10.4061 7.15687 9.98132 6.09 9.97589C5.29252 9.97796 4.51356 10.2165 3.85163 10.6612C3.1897 11.106 2.67453 11.7371 2.37125 12.4746C2.06798 13.2122 1.99023 14.0231 2.14784 14.8049C2.30545 15.5867 2.69133 16.3041 3.2567 16.8666C3.82206 17.429 4.54151 17.8112 5.32407 17.9647C6.10663 18.1183 6.91714 18.0363 7.65313 17.7292C8.38911 17.4221 9.01751 16.9037 9.45885 16.2395C9.90018 15.5752 10.1346 14.7951 10.1326 13.9976ZM20.8919 2.08919C20.0919 2.10276 19.3288 2.42803 18.7649 2.99576C18.2011 3.56349 17.8811 4.32886 17.873 5.12897C17.9184 5.90028 18.2568 6.62512 18.8189 7.15518C19.3811 7.68525 20.1245 7.98048 20.8971 7.98048C21.6698 7.98048 22.4132 7.68525 22.9754 7.15518C23.5375 6.62512 23.8759 5.90028 23.9213 5.12897C23.9158 4.32625 23.5952 3.5578 23.0286 2.98921C22.462 2.42061 21.6946 2.09739 20.8919 2.08919ZM20.8919 24.0257C21.4878 24.0315 22.0722 23.8614 22.572 23.5367C23.0717 23.212 23.4645 22.7472 23.7014 22.2003C23.9382 21.6534 24.0084 21.0488 23.9033 20.4622C23.7982 19.8756 23.5224 19.333 23.1104 18.9024C22.6985 18.4718 22.1686 18.1722 21.5872 18.0413C21.0059 17.9103 20.3988 17.9537 19.842 18.1661C19.2851 18.3784 18.8033 18.7503 18.4568 19.2352C18.1103 19.72 17.9145 20.2963 17.8939 20.8919C17.8965 21.6901 18.2119 22.4555 18.7724 23.0238C19.3329 23.5921 20.0938 23.918 20.8919 23.9317V24.0257Z" fill="#989898"/>
</svg>
