<svg width="22" height="13" viewBox="0 0 22 13" fill="none" xmlns="http://www.w3.org/2000/svg">
<path d="M6.93994 0.350098H13.4399C13.9434 0.443063 14.4181 0.653781 14.8247 0.964844C15.2313 1.27591 15.5583 1.67855 15.7798 2.14014C16.2098 2.95014 16.6901 3.73002 17.1401 4.52002C17.2208 4.67902 17.3396 4.81521 17.4863 4.9165C17.633 5.01779 17.8027 5.08105 17.98 5.1001L18.5698 5.2002C19.2171 5.25243 19.8388 5.47676 20.3701 5.8501C20.9842 6.33035 21.3973 7.0218 21.5298 7.79004V9.6499C21.5341 9.68979 21.5341 9.73013 21.5298 9.77002C21.4297 10.1385 21.2068 10.4617 20.8975 10.6855C20.5881 10.9094 20.2114 11.0202 19.8301 11C19.5401 11 19.2402 11 18.9502 11C18.8732 10.9934 18.7957 11.01 18.728 11.0474C18.6604 11.0848 18.6052 11.1412 18.5698 11.21C18.3593 11.5511 18.0654 11.833 17.7153 12.0283C17.3653 12.2237 16.9707 12.3262 16.5698 12.3262C16.1689 12.3262 15.7749 12.2237 15.4248 12.0283C15.0747 11.833 14.7803 11.5511 14.5698 11.21C14.5355 11.1403 14.481 11.083 14.4131 11.0454C14.3452 11.0079 14.2671 10.992 14.1899 11H7.62988C7.55125 10.9913 7.472 11.0069 7.40234 11.0444C7.33269 11.0819 7.27627 11.1395 7.24023 11.21C7.02974 11.5511 6.73532 11.833 6.38525 12.0283C6.03519 12.2237 5.64112 12.3262 5.24023 12.3262C4.83935 12.3262 4.44479 12.2237 4.09473 12.0283C3.74466 11.833 3.45072 11.5511 3.24023 11.21C3.2071 11.1394 3.15223 11.0812 3.08398 11.0435C3.01574 11.0057 2.93725 10.9905 2.85986 11C2.48028 11.025 2.0998 11.025 1.72021 11C1.36319 10.9628 1.02684 10.8127 0.760742 10.5718C0.494644 10.3309 0.31264 10.0117 0.240234 9.66016V6.72021C0.322602 6.36879 0.50871 6.04997 0.774414 5.80566C1.04012 5.56136 1.37289 5.40274 1.72998 5.3501L2.56006 5.1499C2.70602 5.1154 2.84297 5.05035 2.96191 4.95898C3.08086 4.86762 3.17903 4.75225 3.25 4.62012C3.4 4.34012 3.57021 4.07004 3.72021 3.79004C4.04021 3.24004 4.37016 2.7099 4.66016 2.1499C4.87192 1.69175 5.18881 1.29029 5.58496 0.977539C5.98111 0.664788 6.44515 0.449753 6.93994 0.350098ZM19.75 6.3501C19.5486 6.19422 19.3114 6.09081 19.0601 6.0498C18.7307 5.97169 18.3967 5.91499 18.0601 5.87988C17.7093 5.85557 17.371 5.73911 17.0796 5.54248C16.7882 5.34585 16.5537 5.07588 16.3999 4.75977C15.9499 3.92977 15.4602 3.11004 14.9902 2.29004C14.7869 1.90755 14.4801 1.58945 14.1055 1.37207C13.7308 1.15469 13.3031 1.04672 12.8701 1.06006H7.4502C7.0162 1.04767 6.58718 1.15726 6.2124 1.37646C5.83763 1.59567 5.53202 1.91545 5.33008 2.2998C4.82008 3.1798 4.33006 4.0602 3.81006 4.9502C3.68612 5.18426 3.51288 5.38826 3.30225 5.54883C3.09161 5.70939 2.84838 5.82239 2.58984 5.87988L1.58984 6.12988C1.44178 6.1577 1.30781 6.23554 1.20996 6.3501H1.7998C1.85781 6.34155 1.91747 6.34804 1.97217 6.36914C2.02687 6.39024 2.07507 6.42493 2.1123 6.47021C2.14954 6.5155 2.17444 6.56969 2.18457 6.62744C2.1947 6.68519 2.18952 6.74455 2.16992 6.7998C2.06992 7.2398 1.95984 7.6701 1.83984 8.1001C1.82524 8.18043 1.78144 8.25238 1.7168 8.30225C1.65215 8.35212 1.57164 8.37638 1.49023 8.37012C1.34023 8.37012 1.1998 8.37012 1.0498 8.37012C0.899805 8.37012 0.840098 8.42006 0.850098 8.56006C0.860098 8.70006 0.850098 9.08008 0.850098 9.33008C0.850098 9.59529 0.95553 9.84957 1.14307 10.0371C1.3306 10.2246 1.58488 10.3301 1.8501 10.3301C2.0201 10.3301 2.1901 10.3301 2.3501 10.3301C2.8701 10.3301 2.80006 10.3299 2.81006 9.8999C2.82995 9.27664 3.09649 8.6869 3.55127 8.26025C4.00605 7.83361 4.6116 7.60511 5.23486 7.625C5.85812 7.64489 6.44787 7.91144 6.87451 8.36621C7.30116 8.82099 7.52966 9.42655 7.50977 10.0498C7.50977 10.3298 7.5098 10.3301 7.7998 10.3301H14C14.0209 10.3332 14.0424 10.3315 14.0625 10.3252C14.0826 10.3189 14.1008 10.3079 14.1162 10.2935C14.1316 10.279 14.1433 10.2614 14.1509 10.2417C14.1585 10.222 14.1619 10.2012 14.1602 10.1802V9.97021C14.1608 9.50035 14.3047 9.04169 14.5728 8.65576C14.8408 8.26983 15.2201 7.97482 15.6602 7.81006C16.1077 7.63738 16.5972 7.60522 17.0635 7.71777C17.5298 7.83033 17.9506 8.08213 18.27 8.43994C18.4728 8.66216 18.6292 8.92231 18.7305 9.20557C18.8318 9.48882 18.8758 9.78944 18.8599 10.0898C18.8599 10.2798 18.9098 10.3398 19.0898 10.3398C19.2698 10.3398 19.5698 10.3398 19.7998 10.3398C20.065 10.3398 20.3198 10.2344 20.5073 10.0469C20.6949 9.85934 20.7998 9.60506 20.7998 9.33984V8.81982C20.7998 8.33982 20.8001 8.40014 20.3701 8.39014C19.9508 8.36743 19.5555 8.18626 19.2642 7.88379C18.9728 7.58132 18.8068 7.17966 18.7998 6.75977C18.7998 6.48977 18.9199 6.37012 19.1899 6.37012L19.75 6.3501ZM5.2002 11.6602C5.52695 11.6582 5.84578 11.5589 6.11621 11.3755C6.38665 11.1921 6.5965 10.9327 6.71924 10.6299C6.84198 10.3271 6.87209 9.99474 6.80566 9.6748C6.73924 9.35487 6.57885 9.06146 6.3457 8.83252C6.11255 8.60358 5.8167 8.44925 5.49561 8.38867C5.17451 8.32809 4.84302 8.36395 4.54248 8.49219C4.24194 8.62043 3.98606 8.83515 3.80762 9.10889C3.62918 9.38262 3.53608 9.70305 3.54004 10.0298C3.55308 10.4604 3.73376 10.869 4.04395 11.168C4.35413 11.4669 4.76939 11.6327 5.2002 11.6299V11.6602ZM16.52 8.37012C16.1937 8.3721 15.8752 8.47086 15.605 8.65381C15.3347 8.83676 15.125 9.0957 15.002 9.39795C14.8789 9.7002 14.848 10.0319 14.9136 10.3516C14.9792 10.6712 15.1385 10.9645 15.3706 11.1938C15.6028 11.4232 15.8973 11.5784 16.2178 11.6401C16.5382 11.7019 16.8702 11.6672 17.1709 11.5405C17.4716 11.4138 17.7281 11.2007 17.9077 10.9282C18.0874 10.6558 18.1821 10.3361 18.1802 10.0098C18.1776 9.56938 18.0019 9.14779 17.6914 8.83545C17.3809 8.52311 16.9604 8.34508 16.52 8.33984V8.37012ZM20.0698 7.04004H19.8198C19.8198 7.04004 19.6999 7.04004 19.6699 7.04004C19.6399 7.04004 19.6702 7.14994 19.7202 7.18994C19.8165 7.33291 19.9479 7.44878 20.1021 7.52588C20.2562 7.60297 20.4279 7.63861 20.6001 7.62988C20.7101 7.62988 20.74 7.62998 20.71 7.47998C20.6 7.08998 20.4998 7 20.0698 7V7.04004ZM1.12012 7.04004C0.880117 7.04004 0.870117 7.0398 0.870117 7.2998V7.49023C0.870117 7.59023 0.869766 7.66992 1.00977 7.66992C1.14977 7.66992 1.24002 7.67004 1.27002 7.54004L1.33008 7.2998C1.39008 6.9998 1.38012 7 1.12012 7V7.04004Z" fill="#A7AEB6"/>
<path d="M6.99977 5.35032H4.59987C4.18987 5.35032 4.03977 5.09021 4.24977 4.73021C4.75977 3.87021 5.24983 3.00036 5.80983 2.14036C5.95588 1.88478 6.16912 1.6738 6.42653 1.53099C6.68394 1.38818 6.97564 1.31894 7.26979 1.33031H9.41969C9.72969 1.33031 9.84987 1.44023 9.84987 1.75023V4.9304C9.84987 5.2304 9.72969 5.35032 9.41969 5.35032H6.99977ZM7.13991 4.65013H8.99977C9.13977 4.65013 9.22975 4.65019 9.22975 4.46019C9.22975 3.71019 9.22975 2.97044 9.22975 2.22044C9.22975 2.07044 9.15979 2.02001 9.01979 2.03001H7.37966C7.1893 2.02208 7.00096 2.06911 6.8362 2.16478C6.67144 2.26044 6.53744 2.4008 6.44997 2.57005C6.07997 3.20005 5.6996 3.82042 5.3196 4.45042C5.2096 4.64042 5.21971 4.65013 5.43971 4.65013H7.13991Z" fill="#A7AEB6"/>
<path d="M13.3599 5.35012H11C10.65 5.35012 10.54 5.24016 10.54 4.89016V1.79006C10.54 1.44006 10.6402 1.3301 10.9902 1.3301H13.1401C13.416 1.32313 13.6886 1.38745 13.9321 1.51711C14.1757 1.64678 14.3816 1.83712 14.5298 2.06985C14.6292 2.21055 14.7194 2.35746 14.7998 2.50979C14.8414 2.58749 14.8523 2.67842 14.8301 2.7637C14.8078 2.84897 14.7544 2.92275 14.6802 2.97024C14.603 3.01976 14.5092 3.03679 14.4194 3.01809C14.3297 2.99939 14.2512 2.94636 14.2002 2.87014C14.131 2.77398 14.0671 2.67351 14.0098 2.56985C13.923 2.40218 13.7907 2.26258 13.6279 2.16702C13.4651 2.07146 13.2785 2.0238 13.0898 2.02981H11.4399C11.2799 2.02981 11.2402 2.10002 11.2402 2.25002V4.45022C11.2402 4.62022 11.3 4.66995 11.46 4.66995H15C15.16 4.66995 15.2001 4.67026 15.1001 4.49026L14.77 3.9302C14.737 3.88971 14.7132 3.84215 14.7002 3.79153C14.6872 3.7409 14.6853 3.68813 14.6948 3.63674C14.7043 3.58536 14.7251 3.53679 14.7554 3.49416C14.7856 3.45154 14.8248 3.41613 14.8701 3.39016C14.9145 3.36642 14.963 3.35194 15.0132 3.34768C15.0633 3.34342 15.1139 3.34935 15.1616 3.36526C15.2094 3.38117 15.2535 3.40647 15.291 3.43997C15.3286 3.47346 15.3586 3.51447 15.3799 3.56008C15.6199 3.96008 15.8699 4.36004 16.1099 4.77004C16.3499 5.18004 16.1098 5.37014 15.7598 5.37014L13.3599 5.35012Z" fill="#A7AEB6"/>
<path d="M4.83984 6.3397C4.72984 6.3397 4.61023 6.3397 4.49023 6.3397C4.40006 6.3397 4.31327 6.30385 4.24951 6.24009C4.18575 6.17633 4.1499 6.09003 4.1499 5.99986C4.1499 5.90968 4.18575 5.82339 4.24951 5.75962C4.31327 5.69586 4.40006 5.66001 4.49023 5.66001C4.73316 5.64002 4.97729 5.64002 5.22021 5.66001C5.26358 5.65981 5.30648 5.66847 5.34619 5.68589C5.3859 5.70331 5.42147 5.72905 5.45068 5.76109C5.4799 5.79313 5.50194 5.83078 5.51562 5.87193C5.52931 5.91307 5.53398 5.9567 5.52979 5.99986C5.53249 6.0427 5.52694 6.08582 5.5127 6.12632C5.49845 6.16682 5.47619 6.20397 5.44727 6.2357C5.41834 6.26742 5.38325 6.29298 5.34424 6.31089C5.30522 6.3288 5.26313 6.33844 5.22021 6.3397C5.09021 6.3497 4.99984 6.3397 4.83984 6.3397Z" fill="#A7AEB6"/>
<path d="M11.1901 6.33971C11.0701 6.33971 10.94 6.33971 10.82 6.33971C10.7766 6.33716 10.7345 6.32647 10.6954 6.30748C10.6564 6.2885 10.6212 6.26188 10.5924 6.22936C10.5636 6.19684 10.5416 6.15862 10.5275 6.11754C10.5134 6.07647 10.5072 6.03345 10.5099 5.9901C10.5097 5.90594 10.5421 5.82488 10.5997 5.76354C10.6574 5.7022 10.7359 5.66512 10.82 5.66002C11.0662 5.64002 11.3139 5.64002 11.5602 5.66002C11.6022 5.66132 11.6434 5.67057 11.6818 5.68785C11.7201 5.70514 11.7545 5.72996 11.7833 5.76061C11.8121 5.79126 11.8349 5.82723 11.8497 5.86657C11.8646 5.9059 11.8716 5.94807 11.8703 5.9901C11.8758 6.07605 11.8472 6.16054 11.7912 6.22594C11.7351 6.29134 11.6557 6.33206 11.57 6.33971C11.44 6.34971 11.3201 6.33971 11.1901 6.33971Z" fill="#A7AEB6"/>
<path d="M6.2002 10C6.2002 10.2652 6.09476 10.5195 5.90723 10.707C5.71969 10.8946 5.46541 11 5.2002 11C4.93498 11 4.68021 10.8946 4.49268 10.707C4.30514 10.5195 4.2002 10.2652 4.2002 10C4.2002 9.73478 4.30514 9.48051 4.49268 9.29297C4.68021 9.10543 4.93498 9 5.2002 9C5.46541 9 5.71969 9.10543 5.90723 9.29297C6.09476 9.48051 6.2002 9.73478 6.2002 10ZM5.49023 10C5.48514 9.91864 5.44912 9.84237 5.38965 9.78662C5.33018 9.73087 5.25144 9.70004 5.16992 9.7002C5.09284 9.7095 5.02179 9.74555 4.96875 9.80225C4.91571 9.85895 4.88403 9.93223 4.87988 10.0098C4.88484 10.0894 4.9197 10.1647 4.97705 10.2202C5.0344 10.2757 5.11016 10.3077 5.18994 10.3101C5.27041 10.3075 5.34684 10.2737 5.40283 10.2158C5.45882 10.158 5.49028 10.0805 5.49023 10Z" fill="#A7AEB6"/>
<path d="M16.54 9C16.7378 9 16.9313 9.05858 17.0957 9.16846C17.2602 9.27834 17.3882 9.43446 17.4639 9.61719C17.5396 9.79991 17.5596 10.0013 17.521 10.1953C17.4824 10.3893 17.3869 10.5672 17.2471 10.707C17.1072 10.8469 16.9288 10.9424 16.7349 10.981C16.5409 11.0195 16.34 10.9995 16.1572 10.9238C15.9745 10.8481 15.8184 10.7201 15.7085 10.5557C15.5986 10.3912 15.54 10.1978 15.54 10C15.54 9.73478 15.6455 9.48051 15.833 9.29297C16.0205 9.10543 16.2748 9 16.54 9ZM16.54 9.70996C16.4594 9.71472 16.3833 9.74901 16.3262 9.80615C16.269 9.86329 16.2347 9.93936 16.23 10.02C16.2344 10.0964 16.2661 10.1686 16.3193 10.2236C16.3725 10.2787 16.4438 10.3128 16.52 10.3198C16.6006 10.3226 16.679 10.2939 16.7388 10.2397C16.7985 10.1856 16.8347 10.1102 16.8398 10.0298C16.8426 9.98643 16.8369 9.94342 16.8228 9.90234C16.8086 9.86127 16.7866 9.82304 16.7578 9.79053C16.729 9.75801 16.6939 9.73139 16.6548 9.7124C16.6157 9.69342 16.5731 9.68272 16.5298 9.68018L16.54 9.70996Z" fill="#A7AEB6"/>
</svg>
