<svg width="24" height="15" viewBox="0 0 24 15" fill="none" xmlns="http://www.w3.org/2000/svg">
<path d="M0.259766 9.5799C0.314373 9.49919 0.389685 9.43457 0.477539 9.3924C0.565393 9.35023 0.662634 9.33179 0.759766 9.33967H22.6899C22.7871 9.33179 22.8848 9.35023 22.9727 9.3924C23.0605 9.43457 23.1353 9.49919 23.1899 9.5799V14.4901C23.1238 14.5701 23.0392 14.6326 22.9434 14.6727C22.8475 14.7127 22.7436 14.7292 22.6401 14.72H0.810059C0.706601 14.7292 0.60217 14.7127 0.506348 14.6727C0.410525 14.6326 0.325898 14.5701 0.259766 14.4901V9.5799ZM11.71 13.8997H22.23C22.36 13.8997 22.4102 13.9 22.4102 13.72V10.3299C22.4102 10.2099 22.36 10.16 22.23 10.16H21.52C21.36 10.16 21.3101 10.2199 21.3101 10.3699C21.32 10.5498 21.32 10.7301 21.3101 10.91C21.3024 11.0143 21.2538 11.1113 21.1753 11.1805C21.0968 11.2497 20.9946 11.2851 20.8901 11.2796C20.7849 11.2719 20.6865 11.224 20.6157 11.1458C20.545 11.0676 20.5069 10.9651 20.5098 10.8597C20.4998 10.6965 20.4998 10.5331 20.5098 10.3699C20.5098 10.2099 20.4498 10.15 20.2998 10.16C19.9698 10.16 19.6398 10.16 19.2998 10.16C18.9598 10.16 19.0198 10.24 19.0298 10.45C19.0298 10.84 19.0298 11.2197 19.0298 11.6097C19.0298 11.9997 18.8399 12.0696 18.6099 12.0496C18.3799 12.0296 18.23 11.8599 18.23 11.5599V10.3797C18.23 10.2197 18.1798 10.1597 18.0298 10.1697H16.9502C16.7802 10.1697 16.7302 10.2497 16.7402 10.3997C16.7502 10.5497 16.7402 10.7199 16.7402 10.8699C16.7459 10.9755 16.7105 11.0789 16.6416 11.159C16.5727 11.2391 16.4753 11.2895 16.3701 11.2996C16.3181 11.3037 16.2658 11.2976 16.2163 11.2811C16.1668 11.2646 16.1207 11.2379 16.0815 11.2034C16.0424 11.1689 16.0109 11.1269 15.9883 11.0799C15.9657 11.0329 15.9527 10.9821 15.9502 10.93C15.9403 10.7735 15.9403 10.6163 15.9502 10.4598C15.9502 10.2498 15.9002 10.1597 15.6802 10.1697C15.3672 10.1897 15.0532 10.1897 14.7402 10.1697C14.5402 10.1697 14.47 10.23 14.48 10.43C14.48 10.82 14.48 11.2197 14.48 11.6097C14.4855 11.6644 14.4801 11.7198 14.4639 11.7723C14.4476 11.8248 14.4207 11.8734 14.3853 11.9154C14.3498 11.9573 14.3063 11.9916 14.2573 12.0164C14.2083 12.0413 14.1549 12.0561 14.1001 12.0599C14.0449 12.0612 13.9899 12.0515 13.9385 12.0316C13.887 12.0117 13.8402 11.9817 13.8003 11.9437C13.7604 11.9056 13.7279 11.8603 13.7056 11.8099C13.6833 11.7594 13.6712 11.7049 13.6699 11.6497C13.6649 11.5731 13.6649 11.4963 13.6699 11.4197V10.4197C13.6699 10.2697 13.6702 10.19 13.4702 10.2H12.3999C12.2599 10.2 12.2 10.2497 12.21 10.3797C12.22 10.5097 12.21 10.7099 12.21 10.8699C12.2155 10.9262 12.2094 10.9827 12.1919 11.0364C12.1744 11.0902 12.146 11.1402 12.1084 11.1824C12.0708 11.2247 12.025 11.2584 11.9736 11.2821C11.9223 11.3057 11.8666 11.3185 11.8101 11.3196C11.754 11.3184 11.6986 11.306 11.6475 11.283C11.5963 11.2601 11.5504 11.2274 11.5122 11.1863C11.474 11.1453 11.4446 11.0969 11.4253 11.0443C11.406 10.9916 11.3972 10.9357 11.3999 10.8797C11.3999 10.7197 11.3999 10.56 11.3999 10.41C11.3999 10.26 11.3502 10.19 11.2002 10.2H10.3701C9.90012 10.2 9.93994 10.1999 9.93994 10.6199C9.93994 11.0399 9.93994 11.2999 9.93994 11.6199C9.94467 11.6839 9.93425 11.7482 9.90967 11.8074C9.88508 11.8667 9.84697 11.9189 9.79834 11.9608C9.74971 12.0026 9.69214 12.0327 9.62988 12.0482C9.56763 12.0636 9.50248 12.0639 9.43994 12.0496C9.34119 12.0237 9.2553 11.9629 9.19824 11.8782C9.14119 11.7936 9.11682 11.6909 9.12988 11.5897C9.12988 11.1897 9.12988 10.79 9.12988 10.39C9.12988 10.24 9.07992 10.17 8.91992 10.18H7.91992C7.75992 10.18 7.70996 10.24 7.70996 10.39C7.72989 10.5761 7.72989 10.7639 7.70996 10.95C7.69755 11.049 7.6486 11.1397 7.57275 11.2044C7.49691 11.2692 7.39948 11.3029 7.2998 11.2996C7.19722 11.2945 7.10053 11.2501 7.02979 11.1756C6.95904 11.1011 6.91979 11.0024 6.91992 10.8997C6.91992 10.7297 6.91992 10.5497 6.91992 10.3797C6.91992 10.2097 6.85996 10.17 6.70996 10.18C6.37996 10.18 6.03996 10.18 5.70996 10.18C5.37996 10.18 5.43018 10.2498 5.43018 10.4598C5.43018 10.8598 5.43018 11.2697 5.43018 11.6697C5.4303 11.7725 5.39057 11.8712 5.31982 11.9456C5.24908 12.0201 5.15239 12.0645 5.0498 12.0696C4.94955 12.0753 4.85127 12.0421 4.7749 11.9769C4.69853 11.9117 4.65028 11.8199 4.64014 11.72C4.63025 11.6103 4.63025 11.4997 4.64014 11.39V10.39C4.64014 10.25 4.59018 10.17 4.43018 10.18H3.35986C3.22986 10.18 3.16992 10.2297 3.16992 10.3597C3.17994 10.5162 3.17994 10.6734 3.16992 10.8299C3.16992 11.1099 3.02004 11.2896 2.79004 11.2996C2.73232 11.3011 2.67507 11.2906 2.62158 11.2689C2.5681 11.2471 2.51936 11.2149 2.479 11.1737C2.43865 11.1324 2.40722 11.0831 2.38672 11.0291C2.36622 10.9751 2.3571 10.9174 2.35986 10.8597C2.34492 10.7268 2.34492 10.5927 2.35986 10.4598C2.35986 10.2498 2.30984 10.1597 2.08984 10.1697C1.90371 10.1898 1.71592 10.1898 1.52979 10.1697C1.31979 10.1697 1.25977 10.2298 1.25977 10.4398C1.25977 11.4898 1.25977 12.5397 1.25977 13.5897C1.25977 13.9197 1.25984 13.9197 1.58984 13.9197L11.71 13.8997Z" fill="#A7AEB6"/>
<path d="M0.759766 0.99996C0.85728 1.0471 0.937756 1.12369 0.989746 1.21871C1.04174 1.31373 1.06268 1.4222 1.0498 1.52975C1.0498 3.59975 1.0498 5.67996 1.0498 7.74996C1.0498 7.95996 1.0498 8.15019 0.799805 8.24019C0.549805 8.33019 0.42002 8.23977 0.27002 8.04977C0.27002 5.77977 0.27002 3.49994 0.27002 1.22994C0.27002 1.02994 0.27 0.96996 0.5 0.99996C0.586419 1.00922 0.673346 1.00922 0.759766 0.99996Z" fill="#A7AEB6"/>
<path d="M23.1897 7.99981L23.0398 8.13995C22.9854 8.18319 22.9202 8.21081 22.8514 8.22051C22.7825 8.23022 22.7125 8.22164 22.6482 8.19512C22.584 8.16861 22.5281 8.12505 22.4861 8.06964C22.4442 8.01422 22.418 7.94872 22.4099 7.87969V7.70001C22.4099 5.63001 22.4099 3.54979 22.4099 1.47979C22.3971 1.37225 22.418 1.26328 22.47 1.16827C22.522 1.07325 22.6025 0.997144 22.7 0.950007C22.87 0.950007 23.1 0.890007 23.18 0.950007C23.26 1.01001 23.18 1.25999 23.18 1.42999L23.1897 7.99981Z" fill="#A7AEB6"/>
<path d="M11.7402 4.39034H18.8398C19.1498 4.39034 19.1499 4.39028 19.1499 4.08028V2.68038C19.1449 2.60379 19.1449 2.52698 19.1499 2.4504C19.1538 2.37641 19.1813 2.30527 19.228 2.24776C19.2748 2.19026 19.3385 2.14904 19.4102 2.13009C19.4819 2.10548 19.5597 2.10517 19.6318 2.12862C19.704 2.15207 19.7665 2.19788 19.8101 2.25997C19.9301 2.39997 20.0502 2.5504 20.1602 2.7004L21.52 4.44014C21.5676 4.48415 21.6054 4.53751 21.6313 4.59688C21.6573 4.65625 21.6709 4.72056 21.6709 4.78536C21.6709 4.85016 21.6573 4.91398 21.6313 4.97335C21.6054 5.03272 21.5676 5.08608 21.52 5.13009L19.8701 7.25997C19.7501 7.40997 19.6102 7.5204 19.4102 7.4504C19.3215 7.41911 19.2464 7.35813 19.1973 7.27804C19.1481 7.19794 19.1279 7.10315 19.1401 7.00997V5.50997C19.1401 5.20997 19.1401 5.21016 18.8301 5.21016H4.56982C4.34982 5.21016 4.28004 5.28044 4.29004 5.49044C4.29004 5.95044 4.29004 6.4003 4.29004 6.8503V7.02999C4.30119 7.12312 4.27921 7.2175 4.22803 7.2961C4.17685 7.3747 4.09945 7.43269 4.00977 7.46016C3.92696 7.48663 3.83778 7.48331 3.75732 7.4504C3.67687 7.41748 3.61034 7.3569 3.56982 7.27999L2.9502 6.48018L1.9502 5.18038C1.89531 5.13344 1.85102 5.07508 1.8208 5.00948C1.79058 4.94388 1.7749 4.87223 1.7749 4.80001C1.7749 4.72778 1.79058 4.65662 1.8208 4.59102C1.85102 4.52542 1.89531 4.46706 1.9502 4.42012L3.52002 2.42012C3.65002 2.26012 3.79004 2.08012 4.04004 2.17012C4.29004 2.26012 4.2998 2.47014 4.2998 2.69014V4.14034C4.2998 4.43034 4.3001 4.43038 4.6001 4.43038L11.7402 4.39034ZM3.50977 5.91036V3.67012L2.72998 4.67012C2.66998 4.74012 2.64998 4.80009 2.72998 4.88009L3.50977 5.91036ZM19.9399 3.67012V5.91036L20.7402 4.91036C20.7511 4.90008 20.7597 4.88749 20.7656 4.87374C20.7716 4.85998 20.7744 4.84526 20.7744 4.83028C20.7744 4.8153 20.7716 4.80058 20.7656 4.78682C20.7597 4.77307 20.7511 4.76049 20.7402 4.7502L19.9399 3.67012Z" fill="#A7AEB6"/>
</svg>
