<svg width="18" height="17" viewBox="0 0 18 17" fill="none" xmlns="http://www.w3.org/2000/svg">
<path d="M16.2701 16.2101H15.9302C15.576 16.1581 15.2537 15.9751 15.0279 15.6974C14.802 15.4196 14.6887 15.0674 14.71 14.7101C14.71 14.4101 14.7099 14.4103 14.3999 14.4103H3.12991C2.87991 14.4103 2.88015 14.41 2.87015 14.67C2.8802 14.892 2.84235 15.1136 2.7598 15.3199C2.668 15.5594 2.5124 15.7689 2.3096 15.9259C2.1068 16.0828 1.86471 16.1813 1.60989 16.2101H1.2598C0.916206 16.1606 0.603549 15.9843 0.383331 15.7159C0.163112 15.4476 0.0513296 15.1065 0.0698541 14.7599C0.0698541 13.3799 0.0698541 11.99 0.0698541 10.61C0.067385 9.75698 0.368811 8.93091 0.919952 8.27988C1.03699 8.15147 1.10144 7.9839 1.10013 7.81016C1.10013 6.06016 1.10013 4.30992 1.10013 2.56992C1.09483 2.2483 1.15337 1.92878 1.27249 1.62998C1.39161 1.33118 1.56886 1.05945 1.79398 0.829687C2.01909 0.599921 2.28772 0.416805 2.58401 0.291601C2.88031 0.166397 3.19839 0.101475 3.52005 0.100195C7.00672 0.100195 10.4933 0.100195 13.98 0.100195C14.3135 0.0971699 14.6436 0.164928 14.9488 0.299413C15.2539 0.433899 15.5272 0.631817 15.75 0.87998C16.1903 1.3506 16.4276 1.97598 16.4102 2.62021C16.4102 4.26021 16.4102 5.8999 16.4102 7.5499C16.3913 7.68893 16.4057 7.83078 16.4527 7.96299C16.4996 8.09519 16.5779 8.21417 16.6802 8.31016C16.7313 8.36041 16.775 8.41756 16.8101 8.48008C17.1716 8.99149 17.4078 9.58085 17.5 10.2003V15.1002C17.4316 15.3881 17.2773 15.6481 17.0576 15.8463C16.838 16.0445 16.5634 16.1715 16.2701 16.2101ZM8.79007 13.69H16.5801C16.8001 13.69 16.7998 13.6903 16.7998 13.4503V12.69C16.7998 12.38 16.8 12.38 16.5 12.38H13.5801C13.4908 12.3953 13.3994 12.3953 13.3101 12.38C13.234 12.3614 13.1661 12.3181 13.1177 12.2564C13.0693 12.1948 13.043 12.1185 13.043 12.0401C13.043 11.9618 13.0693 11.8855 13.1177 11.8238C13.1661 11.7622 13.234 11.7189 13.3101 11.7003C13.3928 11.6855 13.4774 11.6855 13.5601 11.7003H16.5601C16.7201 11.7003 16.7798 11.7003 16.7798 11.4903C16.7798 11.1403 16.7798 10.7803 16.7798 10.4303C16.7194 9.67693 16.377 8.9742 15.8208 8.4625C15.2646 7.9508 14.5356 7.6676 13.7798 7.67002C10.4465 7.67002 7.11315 7.67002 3.77981 7.67002C3.07369 7.67151 2.39071 7.92208 1.8511 8.37754C1.3115 8.833 0.950149 9.4644 0.830108 10.1603C0.774992 10.5745 0.754862 10.9926 0.770049 11.4103C0.770049 11.7003 0.770089 11.7003 1.06009 11.7003H10.0601C10.1387 11.7192 10.2083 11.7638 10.2583 11.8272C10.3083 11.8907 10.336 11.9691 10.336 12.0499C10.336 12.1307 10.3083 12.2096 10.2583 12.273C10.2083 12.3365 10.1387 12.3811 10.0601 12.4C9.96702 12.4099 9.87288 12.4099 9.77981 12.4H0.930206C0.810206 12.4 0.759796 12.4499 0.759796 12.5699C0.759796 12.8599 0.759796 13.1603 0.759796 13.4503C0.759796 13.7403 0.760049 13.7101 1.02005 13.7101L8.79007 13.69ZM8.79007 0.819921H3.68021C3.57043 0.809928 3.4599 0.809928 3.35013 0.819921C2.93316 0.874194 2.5512 1.08146 2.27786 1.40098C2.00452 1.72049 1.85921 2.12956 1.87015 2.5499C1.87015 3.9399 1.87015 5.33006 1.87015 6.71006C1.87015 6.90006 1.87015 7.08988 1.87015 7.27988C1.87015 7.46988 1.92007 7.44021 2.04007 7.37021C2.1425 7.29992 2.25345 7.24288 2.37015 7.20029C2.53015 7.15029 2.56985 7.05023 2.56985 6.89023C2.53987 6.51416 2.53987 6.13593 2.56985 5.75986C2.62669 5.31017 2.84879 4.89774 3.19241 4.60215C3.53603 4.30656 3.97707 4.14925 4.43021 4.16025C5.37021 4.16025 6.32005 4.16025 7.27005 4.16025C7.54337 4.15091 7.81512 4.20264 8.06595 4.31162C8.31677 4.4206 8.54056 4.58397 8.72024 4.79014C8.80024 4.88014 8.84995 4.87014 8.91995 4.79014C9.09217 4.59664 9.30309 4.44137 9.53909 4.33457C9.77509 4.22777 10.031 4.17169 10.2901 4.17002C11.2901 4.17002 12.2901 4.17002 13.2901 4.17002C13.7289 4.16725 14.1542 4.32251 14.4883 4.60703C14.8224 4.89155 15.0428 5.28666 15.1099 5.72031C15.1449 6.05273 15.1449 6.3879 15.1099 6.72031C15.1099 7.01031 15.16 7.21012 15.46 7.27012C15.4987 7.28622 15.5354 7.30639 15.5699 7.33017C15.7399 7.42018 15.7403 7.42031 15.7403 7.22031V2.54014C15.7501 2.45709 15.7501 2.37318 15.7403 2.29014C15.6856 1.8705 15.4754 1.48664 15.1514 1.21445C14.8274 0.942266 14.413 0.801349 13.9903 0.819921H8.79007ZM11.8399 6.89023C12.5099 6.89023 13.3602 6.89023 14.2002 6.89023C14.3302 6.89023 14.3799 6.84031 14.3799 6.72031C14.3799 6.44031 14.3799 6.15021 14.3799 5.87021C14.3613 5.61114 14.2501 5.36735 14.0664 5.18369C13.8828 5.00003 13.639 4.88879 13.3799 4.87021H10.2998C10.0556 4.88892 9.82473 4.98858 9.64358 5.15342C9.46244 5.31826 9.34142 5.53852 9.29983 5.77988C9.28503 6.06636 9.28503 6.35376 9.29983 6.64023C9.29983 6.81023 9.2998 6.85996 9.5098 6.85996C10.1098 6.87996 10.8698 6.89023 11.7998 6.89023H11.8399ZM5.98001 6.89023C6.74001 6.89023 7.51005 6.89023 8.27005 6.89023C8.43005 6.89023 8.49001 6.84027 8.48001 6.68027C8.47001 6.52027 8.48001 6.2599 8.48001 6.0499C8.49159 5.7668 8.39445 5.49027 8.20853 5.27646C8.0226 5.06265 7.76198 4.92784 7.48001 4.9H4.35013C4.09105 4.91857 3.84727 5.02981 3.6636 5.21348C3.47994 5.39714 3.3687 5.64092 3.35013 5.9C3.35013 6.19 3.35013 6.4701 3.35013 6.7501C3.35013 7.0301 3.41983 6.95002 3.54983 6.92002C3.70301 6.91005 3.85662 6.91005 4.0098 6.92002L5.98001 6.89023ZM15.4702 14.7003V14.7999C15.4691 14.9698 15.5305 15.1345 15.6431 15.2618C15.7557 15.3891 15.9113 15.4706 16.0801 15.4903C16.2529 15.5078 16.4259 15.4581 16.5635 15.3521C16.7011 15.2462 16.7926 15.0916 16.8199 14.92C16.8301 14.8337 16.8301 14.7466 16.8199 14.6603C16.8199 14.4203 16.8201 14.4103 16.5801 14.4103H15.75C15.43 14.4103 15.4302 14.4103 15.4302 14.7003H15.4702ZM1.47024 14.4103H1.16019C0.760186 14.4103 0.760069 14.3502 0.790069 14.8302C0.794784 15.0003 0.862981 15.1626 0.981475 15.2848C1.09997 15.407 1.26028 15.4804 1.43021 15.4903C1.59808 15.4999 1.76344 15.4467 1.89456 15.3414C2.02568 15.2361 2.11324 15.086 2.14017 14.92C2.15014 14.8002 2.15014 14.6799 2.14017 14.5602C2.14017 14.4502 2.09026 14.4103 1.99026 14.4103H1.47024Z" fill="#A7AEB6"/>
<path d="M11.7101 12.3701C11.6163 12.3702 11.5263 12.3334 11.4591 12.2681C11.3919 12.2027 11.3528 12.1138 11.3502 12.02C11.3415 11.9684 11.3442 11.9157 11.358 11.8652C11.3719 11.8148 11.3965 11.7675 11.4303 11.7275C11.4641 11.6876 11.5064 11.6558 11.5538 11.6338C11.6013 11.6118 11.6529 11.6001 11.7052 11.6001C11.7575 11.6001 11.8091 11.6118 11.8566 11.6338C11.904 11.6558 11.9463 11.6876 11.9801 11.7275C12.0139 11.7675 12.0385 11.8148 12.0524 11.8652C12.0662 11.9157 12.0689 11.9684 12.0602 12.02C12.0577 12.112 12.0198 12.1995 11.9547 12.2646C11.8896 12.3297 11.8021 12.3676 11.7101 12.3701Z" fill="#A7AEB6"/>
</svg>
