<svg width="17" height="18" viewBox="0 0 17 18" fill="none" xmlns="http://www.w3.org/2000/svg">
<path d="M16.7204 10C16.6756 10.1701 16.5916 10.3275 16.4753 10.4595C16.359 10.5914 16.2132 10.694 16.05 10.7598C15.95 10.7598 15.9402 10.88 15.9202 10.96C15.6402 11.96 15.3601 12.9599 15.0701 13.8999C14.9338 14.3611 14.6652 14.7721 14.2971 15.0815C13.929 15.391 13.4779 15.5852 13.0002 15.6401C12.8402 15.6401 12.8301 15.6401 12.9001 15.8301C12.9701 16.0201 13.1302 16.28 13.2302 16.5C13.2637 16.5597 13.2794 16.6279 13.2756 16.6963C13.2718 16.7646 13.2486 16.8301 13.2087 16.8857C13.1688 16.9414 13.114 16.9847 13.0505 17.0103C12.987 17.0358 12.9176 17.0423 12.8503 17.0298C12.7838 17.0185 12.7213 16.9894 12.6702 16.9453C12.619 16.9012 12.5812 16.8439 12.5603 16.7798L12.0803 15.7798C12.0624 15.7297 12.0277 15.6875 11.9822 15.6602C11.9366 15.6328 11.8829 15.6221 11.8303 15.6299H5.00023C4.94765 15.6221 4.89395 15.6328 4.84838 15.6602C4.8028 15.6875 4.76815 15.7297 4.75023 15.7798C4.60023 16.0998 4.43025 16.4198 4.27025 16.7798C4.24749 16.8429 4.20875 16.8991 4.15795 16.9429C4.10715 16.9867 4.04597 17.0166 3.98021 17.0298C3.91556 17.0422 3.84856 17.0371 3.78685 17.0142C3.72514 16.9912 3.67099 16.9515 3.63012 16.8999C3.59293 16.8398 3.57347 16.7709 3.57347 16.7002C3.57347 16.6295 3.59293 16.5601 3.63012 16.5C3.73011 16.28 3.85019 16.0598 3.96019 15.8398C4.07019 15.6198 4.0201 15.6601 3.8601 15.6401C3.3798 15.5851 2.92631 15.3899 2.55638 15.0786C2.18646 14.7674 1.9164 14.3539 1.78002 13.8901C1.50002 12.8901 1.22043 11.94 0.950428 10.96C0.939819 10.9091 0.916638 10.8614 0.883533 10.8213C0.850428 10.7812 0.807966 10.75 0.759998 10.73C0.533618 10.6422 0.347337 10.475 0.235096 10.2598C0.122854 10.0445 0.0924541 9.79589 0.150135 9.56006C0.201626 9.31677 0.337346 9.09936 0.532947 8.9458C0.728549 8.79224 0.971892 8.71248 1.22045 8.72021H14.53C14.61 8.72021 14.6504 8.71986 14.6404 8.60986V2C14.6453 1.91007 14.6453 1.81991 14.6404 1.72998C14.6254 1.62154 14.5809 1.51912 14.512 1.43408C14.443 1.34904 14.3523 1.28464 14.2493 1.24756C14.1463 1.21048 14.0348 1.20205 13.9275 1.22363C13.8202 1.24521 13.721 1.29611 13.6404 1.37012C13.3404 1.63012 13.0803 1.91994 12.8103 2.18994C12.7603 2.23994 12.7603 2.27982 12.8103 2.31982C12.8651 2.37731 12.9035 2.4489 12.9211 2.52637C12.9387 2.60384 12.935 2.68423 12.9104 2.75977C12.8004 3.26977 12.7101 3.7598 12.6101 4.2998C12.6101 4.4598 12.5201 4.60992 12.3401 4.66992C12.2567 4.68832 12.17 4.68204 12.0901 4.65186C12.0102 4.62167 11.9408 4.56896 11.8904 4.5L9.89037 2.5C9.83089 2.45193 9.78653 2.38735 9.76342 2.31445C9.7403 2.24156 9.73908 2.1634 9.76 2.08984C9.78761 2.01579 9.83655 1.95155 9.90062 1.90527C9.96469 1.859 10.0414 1.833 10.1203 1.83008L11.6804 1.56982C11.7453 1.54979 11.8141 1.54704 11.8806 1.56104C11.9471 1.57503 12.009 1.60539 12.0603 1.6499C12.1603 1.7499 12.23 1.6999 12.3 1.6499C12.57 1.3799 12.8301 1.1001 13.1101 0.850098C13.349 0.656024 13.6475 0.549805 13.9553 0.549805C14.2631 0.549805 14.5612 0.656024 14.8 0.850098C14.9727 0.994355 15.1089 1.17702 15.1975 1.38379C15.2861 1.59056 15.3249 1.81555 15.3103 2.04004V8.5C15.3103 8.83 15.3103 8.79004 15.6003 8.79004C15.8457 8.78327 16.0857 8.86096 16.2805 9.01025C16.4753 9.15955 16.6129 9.37119 16.6702 9.60986L16.7204 10ZM8.43041 10.8198H1.85033C1.66033 10.8198 1.65043 10.8198 1.70043 11.0098C1.95043 11.8698 2.19017 12.7298 2.44017 13.5898C2.53205 13.9933 2.7647 14.3512 3.09642 14.5986C3.42815 14.8461 3.83728 14.9669 4.25023 14.9399H12.6003C12.7651 14.9435 12.9294 14.9269 13.0901 14.8901C13.4092 14.8247 13.7029 14.6691 13.9368 14.4424C14.1706 14.2156 14.3351 13.9268 14.4104 13.6099C14.6504 12.7499 14.8904 11.9 15.1404 11.04C15.2004 10.82 15.2004 10.8198 14.9704 10.8198H8.43041ZM8.43041 10.0898H15.7102C15.7898 10.0824 15.8636 10.0455 15.9172 9.98633C15.9709 9.92711 16.0006 9.84994 16.0002 9.77002C16.0016 9.73062 15.995 9.69121 15.9812 9.6543C15.9673 9.61739 15.9466 9.58348 15.9197 9.55469C15.8927 9.5259 15.8604 9.5031 15.8245 9.48682C15.7885 9.47053 15.7496 9.46125 15.7102 9.45996H1.13012C1.05145 9.46756 0.978546 9.50497 0.926502 9.56445C0.874457 9.62393 0.847415 9.7008 0.85033 9.77979C0.85016 9.856 0.878891 9.92963 0.930896 9.98535C0.982901 10.0411 1.05407 10.075 1.13012 10.0801H8.43041V10.0898ZM11.9802 3.54004C12.0364 3.40937 12.0733 3.27113 12.0901 3.12988C12.1801 2.69988 12.1801 2.70014 11.8801 2.39014C11.8451 2.35236 11.8012 2.32387 11.7522 2.30811C11.7031 2.29234 11.6508 2.28951 11.6003 2.2998L11.05 2.39014C10.93 2.39014 10.9302 2.45002 11.0002 2.52002L11.7102 3.25L11.9802 3.54004Z" fill="#A7AEB6"/>
<path d="M8.41986 7C8.41827 6.95175 8.42826 6.90387 8.44915 6.86035C8.47005 6.81683 8.50133 6.77894 8.53997 6.75C8.74997 6.53 8.96011 6.31986 9.18011 6.10986C9.24774 6.04223 9.33935 6.00439 9.43499 6.00439C9.53064 6.00439 9.62225 6.04223 9.68988 6.10986C9.75751 6.17749 9.79535 6.26959 9.79535 6.36523C9.79535 6.46088 9.75751 6.55249 9.68988 6.62012C9.48988 6.84012 9.26997 7.05002 9.03997 7.27002C8.98527 7.32602 8.91479 7.36361 8.83783 7.37793C8.76086 7.39225 8.68098 7.38268 8.6098 7.3501C8.54721 7.31692 8.49613 7.26587 8.46234 7.20361C8.42854 7.14136 8.41358 7.07056 8.41986 7Z" fill="#A7AEB6"/>
<path d="M8.4398 5.00005C8.43286 5.08482 8.39359 5.16385 8.32994 5.22026C8.10994 5.45026 7.88976 5.67995 7.64976 5.89995C7.6047 5.94663 7.54782 5.98057 7.48521 5.99761C7.42261 6.01464 7.35679 6.01405 7.29429 5.99663C7.23179 5.97921 7.175 5.94544 7.13023 5.89849C7.08546 5.85153 7.05432 5.79329 7.0399 5.73003C7.02563 5.6711 7.0272 5.60934 7.04478 5.55132C7.06236 5.49329 7.09542 5.44104 7.14 5.39995C7.36 5.16995 7.58994 4.93001 7.82994 4.71001C7.88114 4.65468 7.94968 4.61839 8.02427 4.60747C8.09887 4.59655 8.17518 4.61161 8.24009 4.64995C8.30545 4.68055 8.35956 4.73085 8.39537 4.7935C8.43117 4.85616 8.44661 4.92821 8.4398 5.00005Z" fill="#A7AEB6"/>
<path d="M10.5096 4.31006C10.5026 4.39272 10.4676 4.47016 10.4099 4.52979C10.1799 4.75979 9.96 4.98996 9.72 5.20996C9.66255 5.27284 9.58398 5.31257 9.4993 5.32178C9.41462 5.33098 9.32918 5.30883 9.25955 5.25977C9.22076 5.23544 9.18757 5.2036 9.16141 5.16602C9.13525 5.12843 9.11704 5.08633 9.1077 5.0415C9.09836 4.99668 9.09824 4.95017 9.10721 4.90527C9.11618 4.86037 9.13409 4.81758 9.15995 4.77979C9.40437 4.48537 9.67559 4.21464 9.97 3.97021C10.022 3.93622 10.0827 3.91797 10.1448 3.91797C10.207 3.91797 10.2676 3.93622 10.3196 3.97021C10.3806 4.00269 10.4309 4.05202 10.4646 4.1123C10.4983 4.17259 10.5138 4.24113 10.5096 4.31006Z" fill="#A7AEB6"/>
<path d="M4.00017 14.3102C3.8056 14.2956 3.6196 14.2242 3.46501 14.1051C3.31042 13.9861 3.19389 13.8247 3.13005 13.6403C2.94005 13.1003 2.7903 12.5404 2.6403 11.9904C2.62848 11.9444 2.62582 11.8963 2.63249 11.8493C2.63916 11.8023 2.65473 11.7573 2.67888 11.7165C2.70302 11.6756 2.73517 11.6395 2.77311 11.611C2.81106 11.5825 2.8541 11.5618 2.90007 11.55C2.94603 11.5382 2.99419 11.5355 3.04118 11.5422C3.08817 11.5488 3.13314 11.5649 3.17399 11.589C3.21485 11.6132 3.25047 11.6453 3.27897 11.6833C3.30748 11.7212 3.32819 11.7643 3.34001 11.8102C3.48001 12.2702 3.6104 12.7404 3.7404 13.2004C3.8004 13.4204 3.9003 13.5703 4.1403 13.6003C4.18595 13.604 4.23013 13.6166 4.27067 13.6379C4.31122 13.6592 4.34719 13.6888 4.37614 13.7243C4.40509 13.7598 4.4264 13.8004 4.43913 13.8444C4.45185 13.8884 4.4559 13.9347 4.45036 13.9801C4.44306 14.0316 4.42531 14.081 4.3986 14.1257C4.3719 14.1703 4.33653 14.2092 4.2946 14.2399C4.25267 14.2707 4.20504 14.2928 4.15446 14.3049C4.10389 14.3169 4.05146 14.3187 4.00017 14.3102Z" fill="#A7AEB6"/>
</svg>
