<svg width="28" height="26" viewBox="0 0 28 26" fill="none" xmlns="http://www.w3.org/2000/svg">
<path d="M8.64984 1.01544C9.29284 1.01449 9.93117 1.1247 10.5366 1.34121C10.9569 1.49697 11.3615 1.69242 11.7447 1.92489C12.2348 2.22141 12.6902 2.572 13.1021 2.97009C13.3375 3.18734 13.5596 3.41851 13.7672 3.66236C13.8742 3.78303 13.9739 3.90994 14.0659 4.04243C14.0659 4.04243 14.1337 4.04243 14.188 4.04243C14.554 3.5881 14.9533 3.1616 15.3825 2.76648C15.6111 2.5488 15.8562 2.34912 16.1155 2.16923C16.4043 1.99303 16.7035 1.83438 17.0114 1.69414C17.3007 1.53652 17.6054 1.40916 17.9209 1.31407C18.2974 1.17628 18.6895 1.08511 19.0882 1.04259C19.5389 0.985805 19.9949 0.985805 20.4456 1.04259C21.4354 1.2262 22.3803 1.59956 23.2283 2.14208C23.6185 2.37364 23.9826 2.64671 24.3142 2.95652C24.4909 3.11969 24.6543 3.29672 24.8029 3.4859C25.0489 3.77529 25.2713 4.08396 25.468 4.40893C25.8267 5.03185 26.1049 5.69777 26.296 6.39073C26.4048 6.80577 26.4864 7.22745 26.5403 7.65311C26.5711 8.10505 26.5711 8.55856 26.5403 9.01051C26.516 9.39278 26.4707 9.77342 26.4046 10.1507C26.2845 10.7916 26.0886 11.4158 25.8209 12.0104C25.613 12.479 25.3726 12.9326 25.1015 13.3678C24.8164 13.8293 24.4771 14.2501 24.1513 14.7252C23.9613 14.9559 23.7577 15.1595 23.5405 15.3767C23.1564 15.7809 22.7485 16.1616 22.3188 16.5169L21.8709 16.8834L21.2058 17.4128C20.7578 17.7521 20.2963 18.0779 19.8484 18.4308L19.2375 18.9059C18.9661 19.096 18.7082 19.2996 18.4502 19.5032L17.5815 20.1955C17.1743 20.5212 16.7942 20.847 16.4141 21.1864C16.0341 21.5257 16.0341 21.5393 15.844 21.7293C15.654 21.9194 15.5318 22.0551 15.3554 22.2044C15.2664 22.3024 15.1848 22.4067 15.111 22.5166C14.8396 22.856 14.5952 23.2089 14.3509 23.5754C14.309 23.6367 14.2637 23.6956 14.2152 23.7518C14.2152 23.7518 14.1201 23.8333 14.0659 23.7518L13.7537 23.3039C13.4144 22.7775 13.0234 22.2864 12.5863 21.8379L11.5682 20.9013C11.1339 20.5212 10.6724 20.1683 10.2108 19.8018C9.74933 19.4353 9.73576 19.4353 9.49142 19.2589L8.47338 18.458L7.11598 17.3992L6.30154 16.7612C5.86717 16.4083 5.45995 16.0418 5.06631 15.6618C4.72861 15.333 4.41129 14.984 4.11613 14.6166C3.7118 14.1445 3.35277 13.6355 3.04379 13.0963C2.79762 12.7383 2.57977 12.3616 2.39224 11.9696C2.14254 11.3495 1.96492 10.7028 1.86285 10.0421C1.80212 9.72373 1.76132 9.40186 1.74069 9.07838C1.72771 8.8795 1.72771 8.68 1.74069 8.48112C1.74699 8.40887 1.74699 8.3362 1.74069 8.26394C1.74069 8.14177 1.74069 8.01961 1.74069 7.88387C1.76837 7.51392 1.8228 7.14646 1.90357 6.78438C1.98136 6.43902 2.0811 6.09898 2.2022 5.76633C2.33244 5.37953 2.49124 5.00295 2.67729 4.63969C2.87433 4.26157 3.10608 3.90258 3.36956 3.56734C3.78786 3.01958 4.30885 2.55853 4.90342 2.20995C5.21786 2.01735 5.54431 1.84506 5.88075 1.69414C6.26968 1.50644 6.67382 1.35205 7.08883 1.23262C7.59559 1.08353 8.12163 1.01035 8.64984 1.01544V1.01544Z" stroke="#E92027" stroke-width="2" stroke-miterlimit="10"/>
</svg>
