<svg width="20" height="19" viewBox="0 0 20 19" fill="none" xmlns="http://www.w3.org/2000/svg">
<path d="M6.09717 1.01137C6.57087 1.01067 7.04113 1.09187 7.48717 1.25137C7.79681 1.36612 8.09483 1.51011 8.37717 1.68137C8.73826 1.89982 9.07369 2.1581 9.37717 2.45137C9.55055 2.61142 9.71418 2.78173 9.86717 2.96137C9.94598 3.05027 10.0194 3.14377 10.0872 3.24137C10.0872 3.24137 10.1372 3.24137 10.1772 3.24137C10.4468 2.90666 10.7409 2.59246 11.0572 2.30137C11.2256 2.141 11.4061 1.9939 11.5972 1.86137C11.8099 1.73157 12.0303 1.61469 12.2572 1.51137C12.4703 1.39526 12.6948 1.30143 12.9272 1.23137C13.2046 1.12986 13.4934 1.0627 13.7872 1.03137C14.1192 0.989542 14.4551 0.989542 14.7872 1.03137C15.5163 1.16665 16.2125 1.4417 16.8372 1.84137C17.1247 2.01197 17.3929 2.21314 17.6372 2.44137C17.7674 2.56159 17.8877 2.692 17.9972 2.83137C18.1784 3.04457 18.3423 3.27196 18.4872 3.51137C18.7514 3.97028 18.9564 4.46086 19.0972 4.97137C19.1773 5.27713 19.2374 5.58779 19.2772 5.90137C19.2998 6.23432 19.2998 6.56842 19.2772 6.90137C19.2592 7.18299 19.2258 7.46341 19.1772 7.74137C19.0887 8.21349 18.9444 8.6734 18.7472 9.11137C18.594 9.45664 18.4169 9.79079 18.2172 10.1114C18.0072 10.4514 17.7572 10.7614 17.5172 11.1114C17.3772 11.2814 17.2272 11.4314 17.0672 11.5914C16.7842 11.8891 16.4837 12.1696 16.1672 12.4314L15.8372 12.7014L15.3472 13.0914C15.0172 13.3414 14.6772 13.5814 14.3472 13.8414L13.8972 14.1914C13.6972 14.3314 13.5072 14.4814 13.3172 14.6314L12.6772 15.1414C12.3772 15.3814 12.0972 15.6214 11.8172 15.8714C11.5372 16.1214 11.5372 16.1314 11.3972 16.2714C11.2572 16.4114 11.1672 16.5114 11.0372 16.6214C10.9716 16.6936 10.9115 16.7704 10.8572 16.8514C10.6572 17.1014 10.4772 17.3614 10.2972 17.6314C10.2663 17.6765 10.2329 17.7199 10.1972 17.7614C10.1972 17.7614 10.1272 17.8214 10.0872 17.7614L9.85717 17.4314C9.60727 17.0436 9.31917 16.6818 8.99717 16.3514L8.24717 15.6614C7.92717 15.3814 7.58717 15.1214 7.24717 14.8514C6.90717 14.5814 6.89717 14.5814 6.71717 14.4514L5.96717 13.8614L4.96717 13.0814L4.36717 12.6114C4.04717 12.3514 3.74717 12.0814 3.45717 11.8014C3.20838 11.5592 2.97461 11.302 2.75717 11.0314C2.45929 10.6836 2.19479 10.3087 1.96717 9.91137C1.78581 9.64762 1.62532 9.37011 1.48717 9.08137C1.30322 8.62454 1.17236 8.14808 1.09717 7.66137C1.05243 7.42681 1.02237 7.18968 1.00717 6.95137C0.997611 6.80486 0.997611 6.65788 1.00717 6.51137C1.01181 6.45814 1.01181 6.40461 1.00717 6.35137C1.00717 6.26137 1.00717 6.17137 1.00717 6.07137C1.02756 5.79883 1.06766 5.52812 1.12717 5.26137C1.18447 5.00695 1.25795 4.75644 1.34717 4.51137C1.44312 4.22642 1.5601 3.94899 1.69717 3.68137C1.84233 3.40281 2.01306 3.13834 2.20717 2.89137C2.51533 2.48783 2.89914 2.14817 3.33717 1.89137C3.56882 1.74948 3.80931 1.62256 4.05717 1.51137C4.34369 1.3731 4.64143 1.25936 4.94717 1.17137C5.3205 1.06154 5.70804 1.00762 6.09717 1.01137V1.01137Z" stroke="#808080" stroke-miterlimit="10"/>
</svg>
