<svg width="36" height="36" viewBox="0 0 36 36" fill="none" xmlns="http://www.w3.org/2000/svg">
<path d="M35.2126 18.1595C35.2126 21.5404 34.2101 24.8454 32.3317 27.6566C30.4534 30.4677 27.7836 32.6588 24.66 33.9526C21.5364 35.2464 18.0993 35.5849 14.7833 34.9254C11.4674 34.2658 8.42144 32.6377 6.03075 30.247C3.64006 27.8563 2.01199 24.8104 1.3524 21.4944C0.692807 18.1784 1.03133 14.7413 2.32516 11.6177C3.61899 8.49417 5.81002 5.82439 8.62117 3.94604C11.4323 2.06769 14.7373 1.06512 18.1183 1.06512C22.652 1.06512 27 2.86613 30.2058 6.07194C33.4116 9.27776 35.2126 13.6258 35.2126 18.1595V18.1595Z" stroke="#B1B1B1" stroke-miterlimit="10"/>
<path fill-rule="evenodd" clip-rule="evenodd" d="M24.9428 8.95515H11.3857C11.0526 8.91216 10.714 8.94616 10.3961 9.05453C10.0782 9.16291 9.78938 9.34277 9.55188 9.58027C9.31437 9.81778 9.13451 10.1066 9.02614 10.4245C8.91776 10.7424 8.88376 11.081 8.92675 11.4141V24.9449C8.88742 25.2687 8.92158 25.5971 9.02668 25.9059C9.13179 26.2146 9.30514 26.4956 9.53384 26.7281C9.76254 26.9606 10.0407 27.1386 10.3477 27.2487C10.6546 27.3589 10.9825 27.3985 11.3068 27.3644H24.9428C25.2727 27.4027 25.6069 27.3656 25.9204 27.256C26.2338 27.1463 26.5183 26.9671 26.7525 26.7317C26.9866 26.4962 27.1644 26.2108 27.2723 25.8967C27.3802 25.5827 27.4155 25.2483 27.3755 24.9186V11.3615C27.4142 11.0339 27.3777 10.7017 27.2687 10.3903C27.1597 10.0789 26.9812 9.79645 26.7466 9.56443C26.5121 9.33242 26.2277 9.15694 25.9151 9.05136C25.6026 8.94579 25.27 8.91288 24.9428 8.95515ZM23.4438 11.0328C25.2716 11.0328 25.2716 11.0328 25.2716 12.8605C25.2716 14.6883 25.2716 14.6489 23.4832 14.6489C21.6949 14.6489 21.6686 14.6489 21.6686 12.8343C21.6686 11.0196 21.6686 11.0328 23.4438 11.0328ZM18.184 14.5831C18.8931 14.5858 19.5853 14.7992 20.1728 15.1962C20.7604 15.5931 21.2166 16.1558 21.4837 16.8126C21.7508 17.4694 21.8166 18.1908 21.6728 18.8852C21.529 19.5795 21.1821 20.2154 20.6761 20.7121C20.1701 21.2088 19.5279 21.544 18.831 21.6749C18.1341 21.8059 17.4141 21.7267 16.7623 21.4476C16.1105 21.1684 15.5564 20.7018 15.1703 20.107C14.7843 19.5123 14.5838 18.8162 14.5942 18.1072C14.6212 17.172 15.0083 16.2834 15.6747 15.6268C16.3412 14.9702 17.2354 14.5963 18.1708 14.5831H18.184ZM25.2847 24.1691C25.2847 25.0238 25.048 25.2737 24.1933 25.2737H12.1221C11.2805 25.2737 11.0438 25.0238 11.0438 24.1691C11.0438 21.96 11.0438 19.6983 11.0438 17.4629C11.0438 16.8185 11.2148 16.6739 11.8065 16.7002C12.6481 16.7002 12.6612 16.7002 12.5692 17.5418C12.4742 18.3528 12.5561 19.1747 12.8091 19.951C13.0621 20.7274 13.4802 21.4397 14.0347 22.039C14.5892 22.6384 15.267 23.1105 16.0213 23.423C16.7757 23.7355 17.5888 23.8808 18.4047 23.8491C19.2206 23.8174 20.02 23.6094 20.7478 23.2393C21.4757 22.8692 22.1147 22.3459 22.621 21.7053C23.1274 21.0647 23.4889 20.3221 23.6809 19.5284C23.8729 18.7348 23.8907 17.909 23.7331 17.1078C23.6673 16.7922 23.7331 16.7265 24.0355 16.7265C25.3505 16.6345 25.3505 16.6082 25.3505 17.9231L25.2847 24.1691Z" fill="#B1B1B1"/>
</svg>
