<svg xmlns="http://www.w3.org/2000/svg" xmlns:xlink="http://www.w3.org/1999/xlink" viewBox="0 0 1043.21 581.98"><defs><style>.cls-1{fill:none;}.cls-2{fill:#1f3564;}.cls-3{clip-path:url(#clip-path);}.cls-4{fill:#fff;}.cls-5{clip-path:url(#clip-path-2);}.cls-6{fill:url(#linear-gradient);}.cls-7{clip-path:url(#clip-path-3);}.cls-8{fill:url(#linear-gradient-2);}.cls-9{clip-path:url(#clip-path-4);}.cls-10{fill:url(#linear-gradient-3);}.cls-11{clip-path:url(#clip-path-5);}.cls-12{fill:url(#linear-gradient-4);}.cls-13{fill:#d80c21;}.cls-14{fill:#c40e1d;}.cls-15{fill:#a61218;}.cls-16{fill:#3c3c3b;}.cls-17{fill:#636362;}.cls-18{fill:#024490;}.cls-19{fill:#033a7e;}.cls-20{fill:#04326c;}.cls-21{fill:#e5e5e5;}</style><clipPath id="clip-path"><rect class="cls-1" x="340.97" width="361.3" height="454.92"/></clipPath><clipPath id="clip-path-2"><path class="cls-1" d="M355.47,117.69v2.37l-.57-.65c-13.39,45.5-3.81,93.49,7,121.44l0,0c.52,1.41.52,1.37,1,2.69,6,15.14,21.93,37,41.38,60.21,23.2,27.86,51.12,57.22,72.65,78.88,8,8.1,15.31,15.34,21.48,21.38l1.49,1.44h.25l11,0C446.91,265.77,474.72,75.05,482.76,29.15c-89.51,14.91-127.29,88.54-127.29,88.54"/></clipPath><linearGradient id="linear-gradient" x1="-82.68" y1="919.04" x2="-80.33" y2="919.04" gradientTransform="matrix(-69.24, 0, 0, 69.24, -5213.65, -63417.85)" gradientUnits="userSpaceOnUse"><stop offset="0" stop-color="#fff"/><stop offset="0.67" stop-color="#fdfefe"/><stop offset="0.91" stop-color="#f6f9fd"/><stop offset="1" stop-color="#f1f5fb"/></linearGradient><clipPath id="clip-path-3"><path class="cls-1" d="M531.69,405.53l11,0H543c6.46-6.3,14.31-14.08,23-22.82,21.53-21.66,49.45-51,72.65-78.88,19.44-23.24,35.34-45.07,41.37-60.21.52-1.32.52-1.28,1-2.69l0,0c10.77-27.95,20.35-75.94,7-121.44l-.57.65v-2.37S649.54,44.06,560,29.15c8,45.9,35.85,236.62-28.34,376.38"/></clipPath><linearGradient id="linear-gradient-2" x1="-91.4" y1="919.04" x2="-89.05" y2="919.04" gradientTransform="translate(6860.23 -63418.03) scale(69.24)" xlink:href="#linear-gradient"/><clipPath id="clip-path-4"><path class="cls-1" d="M630.39,246c-27.95,69.71-74.86,142.11-84.82,157.15,20.61-20.05,52.83-52.53,80.86-84.39q6.55-7.5,12.77-15c18.53-22.15,33.84-43,40.45-58,.15-.37.32-.74.46-1.11.22-.56.36-.87.47-1.15-.09.19-.13.27.09-.33,0,0,.28-.55.91-2.33,10.78-27.95,20.35-75.94,7-121.44l-.58-1.72s-19.54-38.06-63.79-65C633.39,86,656,182.13,630.39,246"/></clipPath><linearGradient id="linear-gradient-3" x1="-85.03" y1="918.72" x2="-82.68" y2="918.72" gradientTransform="matrix(-84.78, 0, 0, 84.78, -6499.1, -77663.73)" gradientUnits="userSpaceOnUse"><stop offset="0" stop-color="#f1f5fb"/><stop offset="0.09" stop-color="#f6f9fd"/><stop offset="0.33" stop-color="#fdfefe"/><stop offset="1" stop-color="#fff"/></linearGradient><clipPath id="clip-path-5"><path class="cls-1" d="M355.1,117.69l-.59,1.72c-13.38,45.5-3.8,93.49,7,121.44l0,0c.51,1.41.52,1.37,1,2.69,6,15.14,21.93,37,41.37,60.21,6.2,7.44,12.74,15,19.4,22.48,26.42,29.45,55.34,58.55,74.33,77-9.74-14.71-56.87-87.36-84.92-157.3-25.61-63.86-3-160,6.21-193.3-44.25,26.94-63.78,65-63.78,65"/></clipPath><linearGradient id="linear-gradient-4" x1="-79.76" y1="916.9" x2="-77.41" y2="916.9" gradientTransform="matrix(-43.28, 0, 0, 43.28, -2992.62, -39453.52)" xlink:href="#linear-gradient"/></defs><g id="Layer_2" data-name="Layer 2"><g id="Layer_1-2" data-name="Layer 1"><path class="cls-2" d="M174.89,342.09,7.67,322,0,252.53,204.66,61l96.68,11.61L276.21,281.71l43.9,5.27-8.59,71.53-43.9-5.28-8.06,67.09-92.73-11.14Zm8.53-71,11.91-99.15L101,261.17Z"/><path class="cls-2" d="M906.78,336.09l-167,22.08-24.69-65.39L865.77,56.36,962.3,43.59l27.62,208.83,43.84-5.8,9.45,71.42-43.84,5.8,8.86,67-92.59,12.25Zm-9.39-70.93-13.09-99L815.14,276Z"/><g class="cls-3"><path class="cls-4" d="M500.47,411.65a5.54,5.54,0,0,1-3.87-1.57l-19-18.69c-6.91-6.9-13.83-13.92-20.57-20.87l-2.82-2.91L451.69,365l-2.54-2.65-2.55-2.66L444,357l-2.55-2.71-2.57-2.73-2.55-2.73-2.56-2.74-2.57-2.77-2.52-2.74-2.5-2.73-2.5-2.75-2.41-2.66L419.08,330c-33.55-37.4-54.19-65.39-61.35-83.21l-.33-.82c-.25-.61-.37-.9-.78-2a2.25,2.25,0,0,0-.08-.24s-.2-.54-.32-.87a4.64,4.64,0,0,1-.16-.53l-.05-.15a218.79,218.79,0,0,1-12.61-54.88c-2.43-24.8-.48-48.15,5.77-69.41a1.72,1.72,0,0,0,.07-.21l.35-1A144.76,144.76,0,0,1,363.26,84.8c11.87-20.4,24.87-33.33,33.68-40.58,8.28-6.81,16.62-11.65,22.3-12.95a1.53,1.53,0,0,0,.63-.33c20.26-18.47,43.72-21.23,55.9-21.23,2.09,0,4.12.08,6,.24h.11a1.39,1.39,0,0,0,.81-.26C495.06,1,512.55,0,519.5,0c.81,0,1.48,0,2,0h.08q.75,0,2,0c7,0,24.43,1,36.79,9.69a1.34,1.34,0,0,0,.8.26h.12c1.89-.16,3.92-.24,6-.24,12.19,0,35.68,2.76,55.94,21.26a1.49,1.49,0,0,0,.62.33c5.86,1.39,14,6.1,22.28,12.92,8.81,7.25,21.8,20.17,33.66,40.55a145.63,145.63,0,0,1,13.79,31.93l.17.6s.16.47.18.54c.15.51.29,1,.43,1.54l.31,1.12c.11.38.21.75.31,1.12.2.74.38,1.47.56,2.21l.13.51c.17.66.33,1.31.49,2,.09.39.17.78.26,1.17l.1.47c.23,1,.45,2,.65,3,0,.2.18.92.18.92.29,1.42.51,2.58.7,3.67l0,.22A181.41,181.41,0,0,1,700.6,162v.11c0,1.43.06,2.8.06,4.09a219,219,0,0,1-13.85,76.61c-.17.48-.32.85-.43,1.17-.41,1.09-.53,1.37-.77,2l-.32.8c-.13.33-.27.64-.4.94l-.41,1-.31.69c-.19.43-.37.82-.55,1.21l-.43.9-.49,1-.67,1.33-.26.49c-1.15,2.21-2.47,4.56-3.92,7l0,.06c-9.73,16.22-26.48,37.77-49.8,64.07a.9.9,0,0,0-.1.11l-2.62,2.94-.08.09-2.6,2.9-.07.08-2.62,2.91-.11.11c-.87,1-1.74,1.92-2.61,2.87l-.15.16c-.83.92-1.7,1.87-2.57,2.81l-.11.13-2.62,2.83-.16.18-2.6,2.8-.1.11-2.64,2.83s-1.86,2-2.74,2.93l-2.82,3L598,358c-22.19,23.36-41.84,42.65-51.58,52.07a5.52,5.52,0,0,1-3.87,1.57Z"/><path class="cls-4" d="M509.92,454.92a3.71,3.71,0,0,1-3.57-2.72l-6-21.39a3.8,3.8,0,0,1-3.16-3.74v-2.66a3.8,3.8,0,0,1,3.79-3.8h41.83a3.8,3.8,0,0,1,3.8,3.8v2.66a3.8,3.8,0,0,1-3.25,3.76l-6,21.37a3.71,3.71,0,0,1-3.58,2.72Z"/><path class="cls-4" d="M361.82,240.89c.52,1.41.52,1.37,1.05,2.68,6,15.15,21.92,37,41.37,60.22,23.2,27.86,51.11,57.22,72.65,78.88,8,8.11,15.32,15.36,21.5,21.4l.09.08,1.38,1.34h.25l20.79.08h0l19.74.07H542C575.78,373.19,647,301.47,673.05,258.42c1.4-2.34,2.67-4.59,3.79-6.75l.35-.67c.18-.35.36-.7.53-1.05l.44-.9.42-.88c.17-.37.34-.73.5-1.1l.3-.67c.26-.58.5-1.17.73-1.74.07-.16.12-.3.18-.43.18-.46.3-.72.42-1a8.05,8.05,0,0,0,.37-1.29c11.14-28.37,21.19-77.39,7.12-123.62,0,0-33.78-91.64-166-91.64-118-4-166.75,91.05-166.75,91.05v2.37l-.57-.65c-13.39,45.5-3.81,93.49,7,121.44l0,0"/></g><g class="cls-5"><rect class="cls-6" x="341.5" y="29.15" width="169.6" height="376.38"/></g><g class="cls-7"><rect class="cls-8" x="531.69" y="29.15" width="169.6" height="376.38"/></g><g class="cls-9"><rect class="cls-10" x="510.84" y="40.26" width="225.82" height="375.31" transform="translate(-33.76 134.66) rotate(-12)"/></g><g class="cls-11"><rect class="cls-12" x="306.39" y="40.25" width="225.94" height="375.47" transform="translate(-38.24 92.17) rotate(-12)"/></g><path class="cls-13" d="M521.51,5.6c-4.1-.14-25.19-.29-37.58,10.18,0,0-34.49-5.62-61.83,20.69-6.51,0-33,15.05-54,51.09a139.5,139.5,0,0,0-13.2,30.73C359,112.81,374.94,91,408.6,94.1c2.34-1.83,23.34-24.66,66.89-16.73,5.94-6.23,27.8-12.88,46-13.11,18.22.23,40.09,6.88,46,13.11,43.55-7.93,64.54,14.9,66.89,16.73,33.65-3.06,49.63,18.69,53.77,24.18a139.94,139.94,0,0,0-13.26-30.72c-21-36-47.51-51.13-54-51.09C593.59,10.16,559.1,15.78,559.1,15.78,546.71,5.31,525.61,5.46,521.51,5.6"/><path class="cls-14" d="M483.92,15.78s-34.48-5.62-61.82,20.7c-6.51,0-33,15-54,51.09a139.22,139.22,0,0,0-13.2,30.72C359,112.81,374.94,91,408.6,94.09c2.34-1.82,23.26-24.57,66.65-16.76,4.16-35,8.67-61.55,8.67-61.55"/><path class="cls-15" d="M408.6,94.09l.06,0c6.27-32.72,13.44-57.56,13.44-57.56-6.51,0-33,15-54,51.09a139.22,139.22,0,0,0-13.2,30.72C359,112.81,374.94,91,408.6,94.09"/><path class="cls-14" d="M559.1,15.78s34.49-5.62,61.83,20.7c6.5,0,33,15,54,51.09a139.23,139.23,0,0,1,13.27,30.71c-4.14-5.48-20.12-27.24-53.77-24.19-2.35-1.82-23.27-24.57-66.66-16.76-4.15-35-8.67-61.55-8.67-61.55"/><path class="cls-15" d="M634.43,94.09l-.07,0c-6.26-32.72-13.43-57.56-13.43-57.56,6.51,0,33,15,54,51.09a139.66,139.66,0,0,1,13.26,30.71c-4.14-5.48-20.12-27.24-53.77-24.19"/><polygon class="cls-16" points="522.09 426.16 521.63 426.16 502.87 426.16 503.11 426.78 509.92 451.21 522.09 451.21 522.09 426.16"/><polygon class="cls-17" points="521.68 426.16 522.14 426.16 540.9 426.16 540.66 426.78 533.85 451.21 521.68 451.21 521.68 426.16"/><path class="cls-17" d="M542.84,427.15H501a.08.08,0,0,1-.08-.08v-2.66a.08.08,0,0,1,.08-.09h41.83a.09.09,0,0,1,.09.09v2.66a.09.09,0,0,1-.09.08"/><polygon class="cls-16" points="540.37 427.86 540.56 427.15 503.19 427.15 503.44 427.86 540.37 427.86"/><path class="cls-18" d="M637.07,222.73c-.51,0-21.78-22.24-64.18-18.36-2.34-1.41-18.06-9.73-51.39-11.52-30.68.64-49.05,10.11-51.38,11.52-42.4-3.88-63.66,18.36-64.18,18.36-25.47-.7-42.58,17.17-44.1,19.25.52,1.41.53,1.37,1.06,2.69,15.94,39.65,100,125.07,137.57,161.41h42.07c37.58-36.34,121.63-121.76,137.57-161.41.53-1.32.53-1.28,1-2.69-1.51-2.08-18.63-19.95-44.09-19.25"/><path class="cls-19" d="M572.89,204.37c42.4-3.88,63.67,18.36,64.18,18.36,25.46-.7,42.58,17.17,44.1,19.25-.53,1.41-.53,1.37-1.06,2.68-15.94,39.67-100,125.07-137.57,161.42H531c29.22-62.76,39.81-136,41.9-201.71Z"/><path class="cls-20" d="M637.07,222.73h0c25.46-.7,42.58,17.17,44.1,19.25-.53,1.41-.53,1.37-1.06,2.68-15.94,39.67-100,125.07-137.57,161.42,0,0,55.63-81.51,87.31-159.7a146.31,146.31,0,0,0,7.22-23.65"/><path class="cls-19" d="M470.12,204.37c-42.4-3.88-63.67,18.36-64.18,18.36-25.47-.7-42.58,17.17-44.1,19.25.53,1.41.53,1.37,1.06,2.68,15.94,39.67,100,125.07,137.57,161.42H512c-29.22-62.76-39.81-136-41.9-201.71Z"/><path class="cls-20" d="M406,222.73h0c-25.47-.7-42.58,17.17-44.1,19.25.53,1.41.53,1.37,1.06,2.68,15.94,39.67,100,125.07,137.57,161.42,0,0-55.63-81.51-87.32-159.7a146.27,146.27,0,0,1-7.2-23.65"/><path class="cls-18" d="M428.54,140.29c0-.11,0-.16,0-.27-.18-4.59-1.78-8-4.63-9.85-3.23-2.09-7.94-2.27-13.59-.38-6.16,2-12.29,4.27-18.32,6.68q1.31,23.66,2.6,47.29c4-1.6,6.07-2.36,10.15-3.83-.31-6.18-.47-9.27-.78-15.44,2.35-.85,3.53-1.26,5.9-2.07,3.83,5,5.73,7.5,9.53,12.58,4.73-1.47,7.1-2.16,11.86-3.47q-5.46-7.35-11.06-14.6c5.25-4,8.64-9.94,8.35-16.64M418,143.6s0,0,0,.07c.19,4.3-2.58,7.74-7.36,9.35-2.86,1-4.29,1.46-7.13,2.49l-.7-13.78c2.78-1,4.18-1.48,7-2.43,5.16-1.74,8-.19,8.21,4.3"/><path class="cls-18" d="M580.87,115.57q-9.66,22.71-18.93,45.57c4.29.47,6.44.73,10.72,1.33,1.52-3.91,2.28-5.86,3.8-9.75,6.69,1,10,1.59,16.67,2.91,1.33,4.4,2,6.6,3.32,11,4.36.92,6.53,1.41,10.86,2.47q-7.93-26-16.29-51.76c-4-.77-6.09-1.13-10.15-1.78m9.28,30.4c-4.08-.78-6.13-1.14-10.23-1.79,2.2-5.51,3.3-8.26,5.52-13.73,1.9,6.19,2.84,9.3,4.71,15.52"/><path class="cls-18" d="M640.39,154.28q7.41-9.1,15-18c-4.59-1.81-6.9-2.68-11.53-4.32-3.6,4.84-5.39,7.28-9,12.21q-3.69-8.82-7.48-17.6c-4.8-1.45-7.21-2.13-12-3.41q6.61,13.61,13,27.33-7.82,9.94-15.4,20.06c4.63,1.22,6.94,1.86,11.54,3.24,3.77-5.33,5.65-8,9.44-13.2q4,9.41,7.85,18.85c4.65,1.65,7,2.52,11.57,4.35q-6.33-14.82-13-29.49"/><path class="cls-18" d="M452.78,157.08l-.3-10.14c6.3-1.32,12.68-2.45,19.06-3.39-.09-3.7-.13-5.55-.21-9.24-6.39.93-12.8,2.07-19.13,3.39-.11-3.92-.17-5.88-.29-9.8,7.28-1.42,14.52-2.67,21.85-3.8-.08-3.7-.11-5.54-.19-9.24-10.95,1.66-21.76,3.71-32.56,6.17q.81,23.79,1.63,47.59c6.53-1.57,13.14-3,19.75-4.1,1.84-4,2.76-6.05,4.61-10.07-5.7.94-8.55,1.46-14.22,2.63"/><path class="cls-18" d="M542.71,111.79q-5.6,7.49-11.05,15.08-5.48-7.83-11.1-15.56h-.12q-5.61,10.51-11.07,21.12.09,13.47.17,26.95c4.15-.17,6.24-.23,10.39-.27q0-14.81,0-29.59,5.75,7.29,11.33,14.71l.06.1h.45q5.71-7.29,11.56-14.46L543,159.6c4.18.23,6.27.37,10.45.72q.28-23.88.59-47.76c-4.54-.38-6.82-.54-11.37-.77"/><path class="cls-13" d="M485,161.25q12.17-25.18,25-50c-5.29.2-7.94.35-13.22.76q-12.69,25.29-24.67,50.92c5.15-.77,7.72-1.1,12.89-1.68"/><rect class="cls-1" x="340.97" width="361.3" height="454.92"/><path class="cls-2" d="M1.73,204.07l22.62-21.23,6.22,6.63-14.9,14,4,4.26,13.5-12.67,5.77,6.15-13.5,12.66,4.19,4.46,15.1-14.17,6.22,6.63L28.12,232.19Z"/><path class="cls-2" d="M28.53,178.92l13.3-12.47c4.3-4,8.32-5.7,12-5.55a12,12,0,0,1,8.64,4.22l.07.08c4,4.29,4.42,9.3,2.32,14.06l15.91,3.51-9,8.44L58.13,188l-.08.08-3.33,3.13,8,8.51-7.79,7.32Zm25.6,1.36c2.65-2.48,3-5.2,1-7.25l-.07-.08c-2.08-2.21-4.74-1.83-7.35.62l-5.1,4.79L49,185.11Z"/><path class="cls-2" d="M57.41,151.82l13.3-12.48c4.3-4,8.33-5.7,12-5.54A12,12,0,0,1,91.37,138l.08.08c4,4.3,4.42,9.3,2.32,14.07l15.91,3.51-9,8.44L87,160.91l-.08.08-3.34,3.12,8,8.52-7.8,7.31ZM83,153.18c2.65-2.49,3-5.2,1-7.25l-.08-.08c-2.07-2.21-4.74-1.83-7.35.62l-5.1,4.79L77.87,158Z"/><path class="cls-2" d="M98.6,139.77l-.07-.08C91,131.61,91.31,119,100,110.81s21.18-7.71,28.75.37l.08.08c7.58,8.08,7.21,20.73-1.46,28.87S106.18,147.84,98.6,139.77Zm22.34-21-.08-.08c-3.8-4-10-4.84-14.35-.8s-3.87,10.12-.06,14.18l.07.08c3.81,4.06,10.06,4.84,14.32.85S124.75,122.86,120.94,118.8Z"/><path class="cls-2" d="M119.68,93.39,133,80.92c4.3-4,8.33-5.7,12-5.55a12,12,0,0,1,8.64,4.21l.08.09A12.17,12.17,0,0,1,156,93.73l15.91,3.51-9,8.44-13.65-3.2-.08.08-3.34,3.13,8,8.51-7.79,7.32Zm25.6,1.36c2.65-2.48,3-5.2,1.05-7.25l-.07-.08c-2.08-2.21-4.74-1.83-7.35.62l-5.1,4.79,6.33,6.75Z"/><ellipse class="cls-21" cx="521.6" cy="557.16" rx="320.37" ry="24.82"/></g></g></svg>