<svg xmlns="http://www.w3.org/2000/svg" viewBox="0 0 29.52 29.51"><defs><style>.cls-1{fill:#fff;}</style></defs><g id="Layer_2" data-name="Layer 2"><g id="Layer_1-2" data-name="Layer 1"><g id="OFFA5S"><path class="cls-1" d="M14.76,0A14.76,14.76,0,1,1,0,14.73,14.76,14.76,0,0,1,14.76,0ZM28.64,15.25a13.89,13.89,0,1,0-13.93,13.4A13.85,13.85,0,0,0,28.64,15.25Z" transform="translate(0 0)"/><path class="cls-1" d="M14.76,15.1a4.54,4.54,0,1,1,4.54-4.57A4.55,4.55,0,0,1,14.76,15.1Zm3.67-4.53a3.67,3.67,0,1,0-3.68,3.67A3.67,3.67,0,0,0,18.43,10.57Z" transform="translate(0 0)"/><path class="cls-1" d="M14.8,16.75a6.52,6.52,0,0,0-6.49,5.67c0,.25,0,.5-.05.74s-.16.51-.43.51-.44-.2-.43-.52a7,7,0,0,1,.38-2.22A7.21,7.21,0,0,1,13.43,16a7,7,0,0,1,6.23,1.76,7.07,7.07,0,0,1,2.43,5,3,3,0,0,1,0,.42.44.44,0,0,1-.45.49c-.25,0-.4-.18-.41-.49a6.51,6.51,0,0,0-5.81-6.39A5.14,5.14,0,0,0,14.8,16.75Z" transform="translate(0 0)"/></g></g></g></svg>