<svg xmlns="http://www.w3.org/2000/svg" viewBox="0 0 139.38 25.7"><defs><style>.cls-1{fill:#1f3564;}.cls-2{fill:#e92027;}</style></defs><g id="Layer_2" data-name="Layer 2"><g id="Layer_1-2" data-name="Layer 1"><g id="QjfqFD"><path class="cls-1" d="M68.26,10.09V24.87c0,.8,0,.81-.82.81-1.4,0-2.79,0-4.18,0-.5,0-.69-.17-.69-.68q0-6.61,0-13.22a1.48,1.48,0,0,1,.16-.74Q65.46,5.9,68.18.77c.34-.65.38-.64.79-.06,1.7,2.4,3.41,4.79,5.09,7.19.28.4.41.41.69,0,1.68-2.44,3.39-4.85,5.06-7.29a1,1,0,0,1,.92-.48c1.55,0,3.1,0,4.64,0,.73,0,.76,0,.76.77V24c0,.43,0,.86,0,1.29s-.13.43-.42.43H80.9a.41.41,0,0,1-.46-.47V10.69c0-.15,0-.3,0-.48-.28.1-.36.34-.5.52l-5,6.57c-.48.64-.57.64-1.06,0l-5.07-6.62C68.63,10.52,68.5,10.38,68.26,10.09Z"/><path class="cls-1" d="M0,13V1.05c0-.9,0-.9.87-.9,2.92,0,5.83,0,8.75,0a12.22,12.22,0,0,1,6.45,1.46,7.24,7.24,0,0,1,3.46,5.2,9,9,0,0,1-.88,6.1A7.48,7.48,0,0,1,15.41,16c-.44.21-.51.39-.25.83,1.66,2.71,3.28,5.43,4.91,8.15.11.19.36.39.21.63s-.4.1-.61.1c-1.7,0-3.41,0-5.11,0a1,1,0,0,1-1-.59c-1.32-2.28-2.68-4.55-4-6.84-.35-.61-.71-1-1.46-.85a9,9,0,0,1-1.64,0c-.47,0-.61.18-.61.63q0,3.4,0,6.81c0,.81,0,.82-.82.82-1.47,0-2.94,0-4.41,0-.46,0-.6-.15-.6-.62C0,21,0,17,0,13ZM5.83,8.83v2.82c0,.82,0,.83.79.83H8.74a9.2,9.2,0,0,0,2.56-.2,3.22,3.22,0,0,0,2.54-3.49A3.17,3.17,0,0,0,11,5.35a30.33,30.33,0,0,0-4.86-.12c-.38,0-.35.3-.35.55Z"/><path class="cls-1" d="M111.91,25.68c-.72,0-1.45,0-2.17,0s-.83-.2-1-.73c-.47-1.41-1-2.8-1.49-4.21a.76.76,0,0,0-.85-.59q-3.8,0-7.58,0a.75.75,0,0,0-.85.6c-.49,1.47-1,2.92-1.52,4.38a.69.69,0,0,1-.77.55c-1.55,0-3.09,0-4.64,0-.52,0-.6-.17-.42-.63q2.82-7.5,5.63-15Q98,5.4,99.71.75A1,1,0,0,1,100.77,0c1.31.05,2.63,0,3.94,0a.84.84,0,0,1,.94.65q2.38,6.42,4.79,12.82,2.15,5.73,4.28,11.44c.27.71.24.77-.52.77S112.68,25.68,111.91,25.68ZM102.67,7.92c-.09.07-.13.09-.14.12-.81,2.26-1.61,4.53-2.42,6.79-.15.41.06.46.4.46h4.16c.46,0,.58-.11.41-.58-.55-1.52-1.07-3.06-1.61-4.59C103.22,9.39,103,8.67,102.67,7.92Z"/><path class="cls-1" d="M128.18,17.32l-2.4,4.23c-.67,1.2-1.36,2.38-2,3.59a.91.91,0,0,1-.92.55c-1.69,0-3.37,0-5.06,0-.2,0-.47.1-.58-.15s.11-.35.21-.51c2.34-3.85,4.67-7.71,7-11.54a1.3,1.3,0,0,0,0-1.57c-2.21-3.61-4.39-7.24-6.58-10.86-.08-.13-.15-.27-.24-.4-.23-.37-.07-.5.3-.5h1.7c1.18,0,2.35,0,3.53,0a1.09,1.09,0,0,1,1.15.67c1.21,2.28,2.48,4.54,3.73,6.8.08.15.12.39.31.39s.23-.25.31-.4c1.3-2.3,2.6-4.6,3.87-6.92a.91.91,0,0,1,.88-.54c1.75,0,3.49,0,5.23,0,.57,0,.61.07.31.56-2.24,3.66-4.47,7.33-6.75,11a1.56,1.56,0,0,0,0,1.94c2.39,3.82,4.71,7.68,7.06,11.52.25.41.16.56-.31.55-1.84,0-3.68,0-5.53,0-.41,0-.57-.23-.74-.54q-2-3.64-4.07-7.28A1.25,1.25,0,0,0,128.18,17.32Z"/><path class="cls-1" d="M25.64,12.89V1c0-.79,0-.81.83-.81h15.7C43,.15,43,.16,43,1c0,1.17,0,2.35,0,3.52,0,.58-.19.74-.75.74-3.33,0-6.66,0-10,0-.82,0-.83,0-.83.8,0,1.2,0,2.4,0,3.59,0,.58.21.76.76.73,2-.13,4-.07,6-.07,1,0,2,.05,2.94.05.37,0,.48.16.48.49,0,1.33,0,2.67,0,4,0,.51-.3.54-.69.54-2.92,0-5.84,0-8.76,0-.58,0-.8.14-.78.76,0,1.29,0,2.58,0,3.88,0,.48.17.65.65.65,2.06,0,4.11,0,6.17,0,.77,0,.81.07.46.75-.68,1.29-1.37,2.56-2,3.85a.77.77,0,0,1-.78.48c-3.2,0-6.39,0-9.58,0-.59,0-.68-.25-.68-.75C25.65,20.93,25.64,16.91,25.64,12.89Z"/><path class="cls-2" d="M45.71,25.68H43.07c-.89,0-.91,0-.49-.83q2.28-4.34,4.58-8.67L52.62,5.84c.9-1.71,1.82-3.42,2.71-5.14a.92.92,0,0,1,.92-.56c1.88,0,3.76,0,5.64,0,.69,0,.73.09.41.7l-8.39,15.9c-1.42,2.7-2.86,5.4-4.26,8.11a1.26,1.26,0,0,1-1.36.84C47.44,25.63,46.57,25.68,45.71,25.68Z"/></g></g></g></svg>