<svg width="36" height="36" viewBox="0 0 36 36" fill="none" xmlns="http://www.w3.org/2000/svg">
<path d="M35.2043 18.1595C35.2043 21.5404 34.2018 24.8454 32.3234 27.6566C30.4451 30.4677 27.7753 32.6588 24.6517 33.9526C21.5281 35.2464 18.091 35.5849 14.775 34.9254C11.4591 34.2658 8.41314 32.6377 6.02245 30.247C3.63176 27.8563 2.00369 24.8104 1.3441 21.4944C0.684507 18.1784 1.02303 14.7413 2.31686 11.6177C3.61069 8.49417 5.80172 5.82439 8.61287 3.94604C11.424 2.06769 14.729 1.06512 18.11 1.06512C22.6437 1.06512 26.9917 2.86613 30.1975 6.07194C33.4033 9.27776 35.2043 13.6258 35.2043 18.1595V18.1595Z" stroke="#B1B1B1" stroke-miterlimit="10"/>
<path fill-rule="evenodd" clip-rule="evenodd" d="M7.82715 25.1024C9.42647 25.2172 11.0295 24.9373 12.4952 24.2871C13.1683 23.9986 13.8005 23.6228 14.3756 23.1694C13.7029 23.1547 13.0421 22.9884 12.4426 22.6828C11.4532 22.1886 10.6875 21.3383 10.2993 20.3028C10.2072 20.0529 10.2072 20.0529 10.4702 20.0792C11.0203 20.156 11.5804 20.1156 12.1139 19.9609C11.7433 19.8697 11.3855 19.7328 11.0488 19.5533C10.3457 19.1832 9.75219 18.6349 9.32758 17.9634C8.90297 17.2919 8.66217 16.5206 8.62927 15.7268C8.62927 15.5295 8.62927 15.5164 8.85281 15.5953C9.39996 15.8781 10.0001 16.0438 10.6148 16.0818C10.3256 15.8188 10.0757 15.6084 9.85217 15.3849C9.24549 14.7037 8.85426 13.858 8.72788 12.9546C8.6015 12.0513 8.74564 11.1307 9.1421 10.3092C9.26044 10.0988 9.29989 10.0988 9.44454 10.3092C11.451 12.6792 14.2592 14.2284 17.3342 14.6617C17.6498 14.7274 18.0049 14.7405 18.3336 14.7931C18.6623 14.8457 18.5703 14.7274 18.544 14.5565C18.3805 13.6267 18.5147 12.669 18.9273 11.8199C19.34 10.9709 20.0101 10.2737 20.8422 9.82776C21.6743 9.38184 22.6259 9.20992 23.5614 9.3365C24.497 9.46308 25.3687 9.8817 26.0524 10.5327C26.1151 10.5947 26.1935 10.6384 26.2792 10.6593C26.3649 10.6801 26.4547 10.6773 26.5389 10.6511C27.3524 10.4311 28.1282 10.0897 28.84 9.63854C28.9148 9.61642 28.9826 9.5757 29.0373 9.5202C28.726 10.5462 28.0532 11.4245 27.1438 11.9923C27.9763 11.8989 28.7912 11.6863 29.5633 11.3611C29.5633 11.4795 29.5633 11.5321 29.4449 11.6241C28.9284 12.3663 28.3034 13.0268 27.5908 13.5834C27.5336 13.6254 27.4879 13.6811 27.458 13.7455C27.4282 13.8099 27.415 13.8808 27.4199 13.9516C27.4991 17.151 26.3993 20.2679 24.3298 22.7091C22.4269 24.9707 19.7686 26.4657 16.8477 26.917C13.7578 27.4451 10.5815 26.823 7.9192 25.1681C7.90906 25.1515 7.89568 25.1372 7.87987 25.1259C7.86405 25.1146 7.84612 25.1066 7.82715 25.1024Z" fill="#B1B1B1"/>
</svg>
