<svg width="36" height="36" viewBox="0 0 36 36" fill="none" xmlns="http://www.w3.org/2000/svg">
<path d="M35.1965 18.147C35.1965 21.528 34.194 24.833 32.3156 27.6441C30.4372 30.4553 27.7675 32.6463 24.6439 33.9401C21.5203 35.234 18.0832 35.5725 14.7672 34.9129C11.4512 34.2533 8.40533 32.6252 6.01464 30.2346C3.62395 27.8439 1.99587 24.7979 1.33628 21.482C0.676694 18.166 1.01522 14.7289 2.30905 11.6053C3.60288 8.48171 5.79391 5.81194 8.60506 3.93359C11.4162 2.05524 14.7212 1.05267 18.1022 1.05267C22.6359 1.05267 26.9839 2.85368 30.1897 6.05949C33.3955 9.2653 35.1965 13.6133 35.1965 18.147V18.147Z" stroke="#B1B1B1" stroke-miterlimit="10"/>
<path fill-rule="evenodd" clip-rule="evenodd" d="M28.2539 15.7139C27.7179 13.4336 26.4278 11.4009 24.5926 9.94515C22.7573 8.48938 20.4844 7.69573 18.1419 7.69273C17.4935 7.71833 16.8477 7.78863 16.209 7.90313C14.6133 8.21515 13.1135 8.89876 11.8313 9.89856C10.5492 10.8984 9.5206 12.1862 8.82903 13.6577C8.13746 15.1292 7.80235 16.743 7.85085 18.3682C7.89936 19.9934 8.33012 21.5843 9.10822 23.0119C9.15806 23.0889 9.19189 23.1752 9.20771 23.2655C9.22352 23.3559 9.22099 23.4485 9.20027 23.5379C8.71373 25.1158 8.26665 26.7464 7.88532 28.3506C7.80642 28.6267 7.80642 28.6267 8.06941 28.561C9.75254 28.0876 11.4225 27.6668 13.0925 27.246C13.1526 27.2196 13.2175 27.2059 13.2832 27.2059C13.3488 27.2059 13.4138 27.2196 13.4739 27.246C15.2335 28.1558 17.2168 28.5429 19.1894 28.3614C21.162 28.1799 23.0414 27.4375 24.6055 26.2219C26.1696 25.0063 27.353 23.3683 28.0158 21.5016C28.6786 19.6349 28.7932 17.6174 28.3459 15.6876L28.2539 15.7139ZM19.6015 26.5623C19.2104 26.6582 18.8068 26.6937 18.4049 26.6675C16.7595 26.6878 15.1402 26.2556 13.7237 25.4183C13.6489 25.3637 13.5626 25.327 13.4714 25.3111C13.3802 25.2951 13.2866 25.3003 13.1977 25.3262L10.41 26.0494C10.2259 26.1152 10.1996 26.0494 10.2391 25.8785C10.4889 25.0238 10.7256 24.1559 10.9886 23.2486C11.0254 23.1598 11.041 23.0637 11.0342 22.9678C11.0273 22.8719 10.9982 22.779 10.9491 22.6963C10.019 21.2452 9.54998 19.5464 9.60396 17.8236C9.65795 16.1007 10.2324 14.4346 11.2516 13.0446C12.1847 11.6597 13.5176 10.592 15.0727 9.98362C16.6278 9.3752 18.3314 9.25494 19.9566 9.63886C21.5934 9.93054 23.1015 10.7173 24.2772 11.893C25.4529 13.0687 26.2396 14.5767 26.5313 16.2136C26.793 17.3507 26.8191 18.5293 26.608 19.6769C26.3969 20.8245 25.953 21.9166 25.3038 22.8862C24.6546 23.8557 23.8137 24.682 22.833 25.3142C21.8523 25.9465 20.7526 26.3712 19.6015 26.5623Z" fill="#B1B1B1"/>
<path fill-rule="evenodd" clip-rule="evenodd" d="M20.8507 23.0119C20.4851 23.0418 20.1173 22.9925 19.7725 22.8673C17.488 22.1724 15.5079 20.7209 14.1576 18.7515C13.5788 18.0372 13.1697 17.201 12.961 16.3057C12.8573 15.8099 12.8893 15.2954 13.0536 14.8163C13.2179 14.3373 13.5085 13.9114 13.8946 13.5837C14.0873 13.4596 14.3037 13.3768 14.53 13.3406C14.7564 13.3044 14.9878 13.3155 15.2096 13.3733C15.2959 13.4587 15.3751 13.5511 15.4463 13.6495C15.7356 14.399 16.0512 15.0828 16.3404 15.7797C16.3722 15.8476 16.3886 15.9217 16.3886 15.9967C16.3886 16.0716 16.3722 16.1457 16.3404 16.2136C16.1723 16.5274 15.9597 16.8153 15.7093 17.0683C15.6665 17.1017 15.6308 17.1432 15.6043 17.1905C15.5778 17.2378 15.561 17.2899 15.5548 17.3438C15.5487 17.3977 15.5534 17.4523 15.5686 17.5043C15.5839 17.5563 15.6093 17.6048 15.6435 17.6469C16.4414 19.0334 17.6896 20.1053 19.1807 20.6845C19.2698 20.733 19.3734 20.7478 19.4724 20.726C19.5715 20.7043 19.6594 20.6475 19.7199 20.5661C19.9829 20.2505 20.2458 19.9218 20.4957 19.593C20.5554 19.4996 20.6486 19.4325 20.7562 19.4056C20.8638 19.3787 20.9776 19.394 21.0743 19.4484L22.5602 20.1453L22.9152 20.3031C23.428 20.5661 23.428 20.5924 23.3623 21.1447C23.3109 21.6205 23.1017 22.0655 22.7681 22.4087C22.4345 22.7518 21.9956 22.9734 21.5214 23.0382C21.2985 23.0776 21.0698 23.0687 20.8507 23.0119Z" fill="#B1B1B1"/>
</svg>
